<svg width="30" height="30" viewBox="0 0 30 30" fill="none" xmlns="http://www.w3.org/2000/svg">
<path d="M3.96265 9.29993L15.0001 15.6874L25.9626 9.33739" stroke="#505050" stroke-width="1.5" stroke-linecap="round" stroke-linejoin="round"/>
<path d="M15.0002 27.0124V15.6749" stroke="#505050" stroke-width="1.5" stroke-linecap="round" stroke-linejoin="round"/>
<path d="M27.0128 11.4625V18.5375C27.0128 18.6 27.0128 18.65 27.0003 18.7125C26.1253 17.95 25.0003 17.5 23.7503 17.5C22.5753 17.5 21.4878 17.9125 20.6253 18.6C19.4753 19.5125 18.7503 20.925 18.7503 22.5C18.7503 23.4375 19.0128 24.325 19.4753 25.075C19.5878 25.275 19.7253 25.4625 19.8753 25.6375L17.5878 26.9C16.1628 27.7 13.8378 27.7 12.4128 26.9L5.73777 23.2C4.22527 22.3625 2.98779 20.2625 2.98779 18.5375V11.4625C2.98779 9.7375 4.22527 7.63753 5.73777 6.80003L12.4128 3.1C13.8378 2.3 16.1628 2.3 17.5878 3.1L24.2628 6.80003C25.7753 7.63753 27.0128 9.7375 27.0128 11.4625Z" stroke="#505050" stroke-width="1.5" stroke-linecap="round" stroke-linejoin="round"/>
<path d="M21.25 17.5V12.7448L9.375 5.625" stroke="#505050" stroke-width="1.5" stroke-linecap="round" stroke-linejoin="round"/>
<path d="M28.75 22.5C28.75 23.4375 28.4875 24.325 28.025 25.075C27.7625 25.525 27.425 25.925 27.0375 26.25C26.1625 27.0375 25.0125 27.5 23.75 27.5C21.925 27.5 20.3375 26.525 19.475 25.075C19.0125 24.325 18.75 23.4375 18.75 22.5C18.75 20.925 19.475 19.5125 20.625 18.6C21.4875 17.9125 22.575 17.5 23.75 17.5C26.5125 17.5 28.75 19.7375 28.75 22.5Z" stroke="#505050" stroke-width="1.5" stroke-miterlimit="10" stroke-linecap="round" stroke-linejoin="round"/>
<path d="M25.0875 23.7998L22.4375 21.1624" stroke="#505050" stroke-width="1.5" stroke-miterlimit="10" stroke-linecap="round" stroke-linejoin="round"/>
<path d="M25.0623 21.2L22.4124 23.8374" stroke="#505050" stroke-width="1.5" stroke-miterlimit="10" stroke-linecap="round" stroke-linejoin="round"/>
</svg>
