<svg width="48" height="48" viewBox="0 0 48 48" fill="none" xmlns="http://www.w3.org/2000/svg">
<path d="M6.34009 14.88L24.0001 25.1L41.54 14.9399" stroke="#292D32" stroke-width="3" stroke-linecap="round" stroke-linejoin="round"/>
<path d="M24 43.22V25.08" stroke="#292D32" stroke-width="3" stroke-linecap="round" stroke-linejoin="round"/>
<path d="M19.86 4.96L9.17999 10.9001C6.75999 12.2401 4.78003 15.6 4.78003 18.36V29.6601C4.78003 32.4201 6.75999 35.78 9.17999 37.12L19.86 43.0601C22.14 44.3201 25.88 44.3201 28.16 43.0601L38.84 37.12C41.26 35.78 43.24 32.4201 43.24 29.6601V18.36C43.24 15.6 41.26 12.2401 38.84 10.9001L28.16 4.96C25.86 3.68 22.14 3.68 19.86 4.96Z" stroke="#292D32" stroke-width="3" stroke-linecap="round" stroke-linejoin="round"/>
<path d="M34 26.48V19.16L15.02 8.19995" stroke="#292D32" stroke-width="3" stroke-linecap="round" stroke-linejoin="round"/>
</svg>
