<svg width="277" height="158" viewBox="0 0 277 158" fill="none" xmlns="http://www.w3.org/2000/svg">
<path d="M103.798 0.133194C95.8709 0.424515 87.6657 0.919754 82.2059 1.44412C79.8307 1.67719 74.155 2.20155 69.5588 2.60939C64.9935 3.01724 57.2819 3.89119 52.439 4.53209C47.5961 5.17299 43.3393 5.75563 42.9692 5.78476C42.0438 5.87215 37.2626 9.83408 33.1908 13.8542C28.533 18.4279 21.6851 26.41 19.3716 29.8767C17.3974 32.8773 17.2432 33.0229 14.868 33.6347C13.6958 33.926 13.3565 34.1882 12.2769 35.8487C11.2898 37.3344 10.7037 37.888 9.59326 38.3832C8.2977 38.9658 8.17432 39.1406 8.14347 40.0728C8.11263 40.6555 7.83501 41.4712 7.55739 41.9081C7.24892 42.316 7.15638 42.6656 7.31062 42.6656C7.434 42.6656 10.056 42.4908 13.1098 42.2577C22.8264 41.5294 30.8773 41.0633 47.6578 40.335C51.5753 40.1602 57.1277 39.898 59.9964 39.7232C62.896 39.5485 68.911 39.4028 73.4146 39.4028C80.6944 39.3737 81.8974 39.4611 84.4268 40.0146C88.0359 40.8011 88.0976 40.8011 88.3135 39.8106C88.406 39.3737 88.7762 38.3832 89.1155 37.6258L89.7633 36.2274L90.7195 36.7227C92.8788 37.7714 93.9584 39.7524 92.6012 40.1602C91.7991 40.4224 90.8121 41.4712 90.1026 42.8403C89.7016 43.5978 89.4548 43.8308 89.3623 43.5395C89.2697 43.3064 89.023 42.6073 88.8379 41.9664L88.4677 40.8303L87.8508 41.7625C87.2956 42.5782 87.2647 42.8403 87.5732 43.9765C88.005 45.5496 88.005 53.2695 87.604 62.8539L87.2956 70.0785L86.1851 72.1178C84.5811 75.1766 83.0387 76.604 80.5402 77.3906C78.7511 77.9441 77.6406 78.0315 71.2554 78.148C67.2762 78.2063 64.1298 78.148 64.2532 78.0024C64.4075 77.8858 67.6772 77.6819 71.5022 77.5945C79.7382 77.3906 80.8486 77.1576 83.3164 75.0892C84.8587 73.7491 86.6786 70.8651 86.6786 69.6998C86.6786 69.0881 84.7661 68.5054 80.972 67.8645C77.6714 67.3401 75.7281 67.311 73.8465 67.748C72.3042 68.1267 72.0265 68.4472 71.7181 70.4572L71.5022 71.8847L69.0036 71.7099C67.5538 71.5934 65.7339 71.2438 64.7776 70.8942C61.4154 69.6416 60.1815 69.4668 54.6908 69.4668C51.7604 69.4668 49.3544 69.3502 49.3544 69.2046C49.3544 69.0881 51.1435 68.8841 53.3336 68.7676C57.6212 68.5637 60.6442 68.855 63.698 69.7581C64.7159 70.0785 66.6901 70.5738 68.0473 70.8651L70.5768 71.4186L70.7618 69.962C71.1937 67.0488 72.3967 66.4079 77.4247 66.4371C79.8615 66.4371 81.4039 66.641 83.6557 67.1945L86.6169 67.9228L86.802 67.1654C86.9254 66.7575 87.1413 61.8925 87.2956 56.3575C87.5115 47.7927 87.4806 46.0448 87.1105 44.5009C86.7403 43.1025 86.7095 42.549 86.9871 42.0829C87.1722 41.7333 87.2956 41.4129 87.2339 41.3838C85.3522 40.2476 80.8795 39.9272 68.9419 40.1602C63.1736 40.2767 57.3436 40.4224 55.9864 40.5098C54.6291 40.5972 49.8479 40.8303 45.3443 41.0633C28.3788 41.9373 14.066 42.7529 8.66786 43.1608L6.72453 43.3064L6.84792 44.7339L7.00215 46.1614H5.86083C3.94835 46.1614 2.80703 46.6857 2.25179 47.8801C1.51148 49.3659 1.41894 64.7474 2.15925 65.2718C2.52941 65.5631 2.52941 65.7379 2.1901 66.3205C1.81994 67.0197 1.85079 70.1659 2.31349 73.7491C2.49857 75.1766 2.6528 75.3514 4.04089 76.3419C5.36729 77.2741 5.49067 77.4197 5.08967 77.8276C4.50359 78.352 4.62697 77.9441 4.25681 80.8282C4.07174 82.1973 3.88666 85.1979 3.85581 87.5285C3.79412 91.5778 3.76327 91.8108 2.99211 92.8887L2.15925 94.0248V103.405V112.815L3.33142 113.718C5.52152 115.408 7.09469 117.097 7.09469 117.738C7.09469 118.175 7.15638 118.175 3.9175 118.845C1.75825 119.282 1.44978 119.428 0.771162 120.389L0 121.467V130.935C0 136.645 0.123386 140.84 0.339311 141.51C0.832855 143.258 2.28264 143.928 7.15638 144.627C17.274 146.054 28.533 147.219 32.6047 147.249C33.4067 147.249 33.6844 147.452 34.363 148.501C35.4118 150.22 36.8615 151.21 39.8228 152.23C44.2956 153.774 53.241 154.095 56.2948 152.813C57.9914 152.114 60.1506 150.511 60.4591 149.725C60.675 149.142 60.8601 149.142 68.51 149.375C79.368 149.696 97.0739 149.754 98.462 149.492L99.6033 149.259L100.529 150.948C102.379 154.415 105.094 156.454 108.734 157.095C112.065 157.707 115.366 158.027 118.235 157.998H121.072L119.222 157.357C116.044 156.25 111.695 151.735 111.078 148.851C110.893 148.123 110.708 147.948 109.813 147.889C109.227 147.831 108.641 147.627 108.518 147.452C108.395 147.249 108.271 145.646 108.271 143.869C108.271 141.247 108.179 140.548 107.778 140.228C107.13 139.733 107.315 137.373 108.58 130.498C109.69 124.584 109.69 124.118 108.857 123.564C107.901 122.894 108.148 121.496 109.289 121.38C110.245 121.263 110.43 120.739 109.474 120.739C108.981 120.739 108.857 120.593 108.95 119.923C109.042 119.224 109.166 119.136 110.122 119.136C110.708 119.136 111.325 118.962 111.448 118.758C111.88 118.117 111.047 117.534 109.752 117.534C108.549 117.534 108.518 117.505 108.672 116.718C108.765 116.282 109.011 114.912 109.197 113.689C109.536 111.737 109.752 111.242 110.862 109.989C111.541 109.202 112.528 108.008 112.991 107.367C114.44 105.386 114.471 105.386 125.36 105.037C130.789 104.862 135.385 104.833 135.632 104.978C135.879 105.095 136.249 105.532 136.465 105.911C136.804 106.581 136.897 106.61 139.889 106.522C142.758 106.435 143.035 106.377 143.683 105.678L144.392 104.949L144.3 96.9963L144.207 89.0142L145.102 88.8685C145.595 88.7811 147.138 88.6937 148.588 88.6937H151.179L151.086 100.463C151.024 106.93 150.901 112.32 150.808 112.407C150.654 112.553 139.087 111.387 137.544 111.067C137.298 111.009 137.113 111.183 137.113 111.417C137.113 111.708 137.483 111.883 138.346 111.941C141.123 112.087 142.233 112.349 142.85 112.96C144.577 114.738 147.261 121.117 148.032 125.4C148.217 126.448 148.464 129.74 148.588 132.741L148.773 138.218H151.364H153.924V139.179C153.924 139.733 153.831 140.228 153.739 140.315C153.646 140.403 152.505 140.17 151.209 139.791C149.852 139.412 148.803 139.237 148.742 139.383C148.68 139.558 148.094 139.674 147.446 139.674C146.459 139.674 146.243 139.558 146.151 139.063C146.089 138.538 145.534 138.305 143.128 137.635C141.524 137.198 139.796 136.674 139.334 136.499C138.84 136.324 138.408 136.178 138.316 136.178C138.254 136.178 138.192 137.052 138.192 138.13V140.111L141.524 141.364C144.701 142.558 145.04 142.617 149.019 142.791L153.184 142.966L153.862 142.151C154.294 141.626 154.541 140.927 154.541 140.228C154.541 139.121 154.572 139.092 155.621 139.092C156.268 139.092 156.762 139.266 156.947 139.558C157.163 139.936 157.348 139.966 157.841 139.733C158.181 139.558 158.983 139.412 159.661 139.441C160.309 139.47 171.661 137.926 184.863 136.033C208.306 132.654 208.831 132.566 208.831 131.925C208.831 131.08 209.139 130.352 209.478 130.352C209.633 130.352 209.756 130.964 209.756 131.721C209.756 133.673 210.928 136.178 212.841 138.363C214.136 139.849 214.661 140.228 215.555 140.344C216.203 140.461 220.583 140.519 225.334 140.519C232.829 140.519 233.878 140.49 233.199 140.14C231.194 139.092 229.282 135.567 227.894 130.498C227.369 128.459 227.308 127.555 227.431 123.506C227.616 118.612 228.048 116.748 229.806 113.019C232.336 107.775 236.901 106.988 240.479 111.242C241.898 112.902 242.731 114.767 243.656 118.525C244.458 121.758 244.458 124.38 243.656 129.362C243.317 131.517 243.101 133.498 243.194 133.731C243.317 134.023 243.934 134.139 245.631 134.139H247.913L248.098 129.507L248.283 124.875L247.235 123.797C246.186 122.778 246.155 122.661 246.155 120.36C246.155 117.155 245.476 113.689 244.304 110.921C243.101 108.095 242.022 106.61 240.541 105.648C239.554 105.037 239.184 104.978 237.919 105.153C236.994 105.27 236.006 105.648 235.297 106.202C234.032 107.163 233.94 107.134 234.464 106.085C235.39 104.134 239.184 103.522 241.374 104.949C242.885 105.94 243.656 107.018 244.921 109.843C246.186 112.698 246.71 115.262 247.019 119.486C247.142 121.35 247.389 122.924 247.543 122.982C247.975 123.098 247.574 116.718 246.988 114.184C246.34 111.504 245.723 109.931 244.582 108.037C243.903 106.872 243.749 106.435 244.057 106.348C245.075 106.056 249.733 105.707 249.949 105.881C250.103 105.998 249.363 107.018 248.345 108.125L246.463 110.193L246.926 111.446C247.666 113.572 248.314 117.738 248.314 120.476V123.04L249.641 123.215C250.35 123.302 252.263 123.39 253.867 123.448L256.797 123.506L256.89 122.254L256.982 121.03H263.923H270.832V119.428V117.825H263.737H256.643V119.136C256.643 120.418 256.643 120.447 255.594 120.447C254.638 120.447 254.545 120.535 254.268 121.671L253.928 122.924L253.897 121.875C253.897 121.292 253.774 120.389 253.682 119.894C253.496 118.991 253.496 118.991 254.761 118.991C255.81 118.991 256.026 118.903 256.026 118.408C256.026 117.913 255.81 117.825 254.792 117.825C254.113 117.825 253.558 117.767 253.558 117.709C253.558 117.651 253.928 116.981 254.36 116.252C255.039 115.116 255.131 114.65 255.008 113.601C254.823 112.407 254.915 112.174 256.519 109.96C257.938 108.008 258.216 107.455 258.062 106.755C257.877 105.736 258.494 105.299 260.036 105.299C260.992 105.299 261.023 105.328 260.9 106.464L260.776 107.629H264.509C266.544 107.629 268.951 107.717 269.814 107.804C272.961 108.183 271.048 108.503 265.866 108.503H260.653V111.708V114.912H266.205H271.758V111.883C271.758 110.164 271.881 108.736 272.066 108.649C272.251 108.562 272.374 107.571 272.374 106.464V104.454L273.392 104.367L274.379 104.279L274.534 95.1027L274.688 85.9262L275.521 85.8388C277.063 85.664 277.125 85.1397 276.909 71.5643C276.354 38.121 276.045 24.4582 275.829 24.2834C275.706 24.196 273.331 23.759 270.524 23.3512C267.717 22.9142 257.815 21.3994 248.468 19.9428C239.153 18.5153 228.449 16.8548 224.717 16.3013C220.984 15.7187 214.198 14.6699 209.602 13.9708C195.197 11.7276 180.544 9.4845 173.511 8.40662C169.779 7.85312 163.764 6.9209 160.155 6.36739C156.515 5.81389 153.184 5.40605 152.752 5.49344C152.289 5.58084 147.354 5.78476 141.74 5.95955C136.156 6.10521 128.692 6.33826 125.206 6.42566L118.852 6.62958L118.636 4.50296C118.389 2.02676 118.173 1.53152 116.846 0.774094C115.52 0.0166779 111.911 -0.158127 103.798 0.133194ZM115.582 1.35674C117.278 2.11415 117.371 2.63853 117.463 12.5433L117.556 21.6324L115.921 22.5064C114.996 23.0016 111.078 24.5456 107.161 25.9148C97.9684 29.1484 96.8271 29.6145 96.2102 30.1972C95.5316 30.8089 95.7783 31.0129 97.0739 31.0129C99.3257 31.0129 100.189 31.9451 100.745 34.8583L100.93 35.9653H99.8192C98.9247 35.9653 98.6471 35.8196 98.2769 35.1496C97.9067 34.4795 97.3824 34.2465 94.637 33.5182C92.9096 33.0521 91.3364 32.6442 91.1514 32.586C90.9663 32.5277 90.8429 33.0812 90.8121 33.8678L90.7812 35.2661L92.2618 35.7905C93.5882 36.2274 93.8042 36.4022 94.0818 37.451C94.2669 38.0919 94.3594 38.9076 94.2977 39.2571C94.2052 39.8106 94.1743 39.7815 93.9276 39.0241C93.6191 37.8879 93.0022 37.2471 91.429 36.3731C90.3185 35.7613 90.1951 35.5865 90.3185 34.8C90.6578 32.4986 89.6707 31.8868 84.5194 31.1876C77.6406 30.2554 73.538 30.1389 63.3895 30.5759C49.7862 31.1876 30.4146 32.1781 22.2095 32.7316C20.2661 32.8482 18.6004 32.9064 18.5387 32.8482C18.076 32.5277 22.1786 26.6722 25.2941 23.2056C31.2166 16.5926 40.7174 7.62006 42.7224 6.80437C44.0796 6.25087 59.9039 4.26991 71.2554 3.22116C72.3659 3.10463 74.5251 2.87158 76.0366 2.72592C77.5789 2.55113 84.5194 2.02676 91.4598 1.58978C105.156 0.686707 113.885 0.599304 115.582 1.35674ZM152.752 29.4689C152.69 42.1121 152.628 60.3485 152.598 70.0494L152.536 87.6741H148.372H144.207L143.683 77.6237C143.189 68.3306 142.295 55.6001 141.585 48.1715C141.215 44.2969 140.506 40.7429 139.92 39.9272C139.673 39.5485 138.501 38.9658 136.989 38.4706C135.169 37.8588 134.306 37.4218 133.843 36.8101C132.856 35.4991 129.494 33.3725 127.334 32.7025C125.052 32.0033 124.62 31.5664 124.62 30.1098C124.62 29.5271 124.435 28.8862 124.188 28.7115C123.787 28.391 119.314 28.0414 110.646 27.6044C108.487 27.517 106.821 27.3131 106.945 27.1966C107.068 27.0801 108.919 26.3226 111.047 25.5361C113.176 24.7204 115.551 23.8173 116.353 23.4677C118.666 22.4772 118.759 22.1277 118.759 14.2621V7.4744L120.085 7.35788C120.795 7.27048 123.263 7.18307 125.545 7.12482C127.828 7.09569 132.702 6.95003 136.341 6.8335C139.981 6.74611 145.194 6.62958 147.909 6.60045L152.844 6.54219L152.752 29.4689ZM164.751 7.82397C169.409 8.55228 183.197 10.6498 195.412 12.5142C207.628 14.3786 230.423 17.8453 246.093 20.2341C261.732 22.6229 274.657 24.633 274.811 24.7204C274.935 24.8078 275.151 32.7899 275.274 42.4325C275.397 52.1042 275.552 61.0477 275.613 62.3295C275.675 63.6113 275.829 69.0298 275.953 74.3318L276.138 84.0326H272.714H269.29V82.9256C269.29 80.6242 268.241 80.566 267.902 82.8382L267.686 84.2657L264.015 84.4696C261.979 84.5862 260.221 84.6153 260.128 84.5279C260.036 84.4405 259.882 83.6539 259.758 82.8091C259.511 80.8282 258.925 81.0321 259.049 83.0713L259.172 84.557L254.73 84.6735C252.324 84.7318 250.288 84.7609 250.258 84.7318C250.196 84.7318 250.072 83.887 249.98 82.8965C249.702 80.566 249.116 80.7116 248.993 83.1004L248.9 84.9066H244.458H239.986V83.3626C239.986 81.7604 239.554 80.6242 239.245 81.4108C239.153 81.6438 239.029 82.5761 238.999 83.45L238.906 85.0523L234.248 85.1397L229.59 85.2271L229.374 84.2948C229.282 83.7996 229.189 82.9548 229.189 82.4013C229.189 81.3817 228.758 80.8864 228.387 81.469C228.264 81.6438 228.202 82.4887 228.233 83.3335C228.264 84.1783 228.202 84.9066 228.048 84.994C227.925 85.0814 225.549 85.2562 222.773 85.3727L217.776 85.5766V84.5862C217.776 82.9256 217.406 81.3817 217.036 81.4982C216.82 81.5564 216.727 82.2847 216.789 83.5374L216.912 85.4892H211.36H205.777L205.623 84.2366C205.53 83.5665 205.407 82.6926 205.376 82.2847C205.191 80.8282 204.666 81.6147 204.389 83.6539L204.111 85.7805H198.651C192.575 85.7805 192.791 85.8679 192.791 83.7996C192.791 82.5761 192.39 81.8186 191.927 82.1099C191.742 82.1973 191.495 83.1296 191.402 84.1783L191.187 86.0719H185.233H179.28L179.064 84.0326C178.786 81.3817 178.169 81.4399 178.046 84.12L177.953 86.0719L174.653 86.101C172.833 86.1301 169.902 86.1593 168.113 86.1884L164.874 86.2175L164.782 84.5279C164.72 83.3044 164.566 82.8674 164.258 82.8674C163.887 82.8674 163.795 83.2752 163.795 84.6153V86.3632H158.705H153.615V46.6566C153.615 24.8078 153.708 6.8335 153.831 6.74611C154.232 6.33826 156.453 6.57132 164.751 7.82397ZM110.677 28.5658C111.387 28.6532 111.973 28.8571 111.973 29.0028C111.973 29.1776 110.77 29.265 108.981 29.2067C106.328 29.1193 105.958 29.061 105.865 28.5949C105.742 28.0123 106.019 28.0123 110.677 28.5658ZM103.459 29.9059C103.613 30.168 103.706 30.4594 103.613 30.5468C103.521 30.6341 102.441 30.605 101.238 30.5176C98.8938 30.3428 98.6779 29.9932 100.621 29.5563C102.071 29.2067 103.058 29.3232 103.459 29.9059ZM118.759 30.4594C121.566 30.8089 122.461 31.1294 122.461 31.6829C122.461 31.9451 121.288 31.9159 117.309 31.5372C114.44 31.275 111.757 31.042 111.294 31.0129C110.739 31.0129 110.43 30.8672 110.43 30.5759C110.43 29.8476 113.7 29.7893 118.759 30.4594ZM120.147 32.7608C124.496 33.1103 129.062 34.1591 130.635 35.1496C132.115 36.1109 133.565 37.5092 133.565 37.9462C133.565 38.2958 132.948 38.3249 129.956 38.1501C123.077 37.7714 115.736 37.1888 115.428 37.014C115.273 36.9266 115.027 36.344 114.903 35.7613C114.78 35.1496 114.44 34.2465 114.101 33.7512C113.237 32.382 113.33 32.1781 114.841 32.3238C115.551 32.382 117.957 32.586 120.147 32.7608ZM98.1227 36.6936C98.4311 37.6549 98.7088 38.9367 98.7088 39.5193C98.7088 40.5389 98.6471 40.6263 97.8451 40.6263C96.9814 40.6263 96.9197 40.5389 96.457 38.4415C95.7166 35.237 95.7475 34.7417 96.7346 34.8583C97.444 34.9456 97.6291 35.2078 98.1227 36.6936ZM74.741 35.5283C74.7102 35.6739 74.3092 35.8487 73.8773 35.907C73.2913 35.9944 73.137 35.907 73.2913 35.5283C73.5072 35.033 74.8644 35.033 74.741 35.5283ZM76.9928 35.5283C77.3013 35.7613 77.4247 35.9653 77.2088 35.9653C76.6227 35.9653 75.8824 35.6448 75.8824 35.3535C75.8824 34.9748 76.3142 35.033 76.9928 35.5283ZM95.4699 36.2566C95.9943 37.2179 96.241 40.4807 95.7783 40.4807C95.6241 40.4807 95.5316 40.2476 95.5624 39.9563C95.6241 39.6941 95.5007 39.4611 95.3465 39.4611C95.1614 39.4611 95.0072 39.0824 95.0072 38.6162C95.0072 38.1501 94.7913 37.3053 94.5445 36.7518C93.9584 35.4409 93.9584 35.3826 94.5445 35.3826C94.7913 35.3826 95.1923 35.7613 95.4699 36.2566ZM108.425 37.4218C111.479 37.5966 114.872 37.7714 115.983 37.8588C117.093 37.9171 119.314 38.0627 120.918 38.1501C130.82 38.7036 135.694 39.1697 137.298 39.6941C138.593 40.102 138.963 40.3933 139.148 41.005C139.272 41.442 139.272 41.8499 139.179 41.9081C139.056 41.9664 136.958 41.9081 134.491 41.7916C132.023 41.6459 123.509 41.1798 115.52 40.772C107.562 40.3641 100.714 39.9563 100.344 39.898C99.665 39.7524 99.5416 39.5193 99.1715 37.7423L98.9555 36.7518L100.899 36.9557C101.978 37.0431 105.372 37.2762 108.425 37.4218ZM10.7963 39.0241C10.7963 39.2571 10.6729 39.4611 10.5187 39.4611C10.1176 39.4611 9.84003 38.9949 10.0868 38.7619C10.4261 38.4415 10.7963 38.5871 10.7963 39.0241ZM9.56241 39.4611C9.56241 39.6067 9.43902 39.7524 9.25395 39.7524C9.09971 39.7524 8.94548 39.6067 8.94548 39.4611C8.94548 39.2863 9.09971 39.1697 9.25395 39.1697C9.43902 39.1697 9.56241 39.2863 9.56241 39.4611ZM12.0301 39.6067C12.0301 39.8398 11.8142 40.0437 11.5674 40.0437C11.0739 40.0437 10.9505 39.6941 11.3207 39.3737C11.66 39.0241 12.0301 39.1406 12.0301 39.6067ZM10.2719 40.2476C10.056 40.3059 9.6241 40.3059 9.34649 40.2476C9.03802 40.1602 9.2231 40.102 9.71664 40.102C10.241 40.102 10.457 40.1602 10.2719 40.2476ZM93.4649 41.0633C93.4649 41.2964 93.1255 41.6751 92.7554 41.9373C91.1822 42.8986 91.2131 42.316 90.5653 63.2034C90.1643 75.4679 89.7633 82.6926 89.5165 82.9256C89.3623 83.0713 87.0488 83.1004 84.2418 82.9839L79.2446 82.78L79.3372 81.3234C79.4605 80.0416 79.5531 79.8377 80.2009 79.7503C81.373 79.5755 84.1492 78.2937 85.4756 77.3032C86.6786 76.4001 87.8508 74.5648 88.7145 72.2634C89.4548 70.3407 89.7324 66.2914 89.7941 57.2314C89.8867 44.8504 90.1643 42.9277 92.2001 41.2964C93.1564 40.5389 93.4649 40.4807 93.4649 41.0633ZM106.42 40.8885C108.703 41.0633 112.405 41.2381 114.595 41.3546C116.816 41.442 119.222 41.5877 119.993 41.6459C121.35 41.7625 124.188 41.9081 132.331 42.2286C134.614 42.316 137.205 42.4616 138.1 42.549L139.673 42.6947L140.166 44.763C140.999 48.2589 140.722 49.9194 139.642 47.7636C138.717 45.9283 138.069 45.7244 132.146 45.637C128.661 45.5787 126.625 45.637 126.193 45.8409C125.422 46.2488 124.774 47.3558 124.466 48.9289L124.219 50.0942L123.787 47.9093C123.293 45.4913 122.491 44.2387 120.671 43.1025C119.623 42.4616 119.006 42.3742 114.132 42.0829C102.009 41.4129 99.6341 41.209 99.6341 40.8885C99.6341 40.5681 101.207 40.5681 106.42 40.8885ZM86.3702 42.7821V43.4521L76.1291 43.3356C67.708 43.2191 64.1298 43.2773 56.2948 43.8017C51.0509 44.1513 40.0696 44.7339 31.9261 45.1418C23.7826 45.5205 16.071 45.9283 14.8063 46.0448L12.4928 46.2196L10.858 55.8622C9.96342 61.1934 8.82209 67.6897 8.3594 70.3407C7.86585 73.0208 7.55739 75.701 7.61908 76.371C7.80416 77.7984 7.34146 77.7111 12.8938 77.6528C15.269 77.6237 16.6571 77.7111 16.6571 77.915C16.6571 78.0898 15.0222 78.2063 12.1844 78.2063C8.17432 78.2063 7.64993 78.148 7.12554 77.6528C6.38522 76.9536 6.47776 75.7884 7.58824 69.6124C8.02009 67.3693 9.03802 61.7177 9.87088 57.0858C10.7037 52.4247 11.5057 48.0841 11.66 47.3849L11.9684 46.1614L10.3644 46.1322C9.09971 46.1322 8.94548 46.074 9.50072 45.87C10.5187 45.4622 18.7855 44.763 28.3788 44.2678C33.0366 44.0347 41.5811 43.5686 47.3494 43.2191C57.8063 42.6364 70.9469 42.2286 81.0646 42.1412L86.3702 42.0829V42.7821ZM97.3824 42.3742C96.1485 42.5199 95.3773 42.7821 94.9763 43.2191C94.637 43.5395 94.1743 43.8308 93.9276 43.8308C93.7116 43.8308 93.3106 43.9182 93.033 44.0056C92.231 44.2969 92.4778 43.4812 93.4032 42.7529C94.1126 42.1994 94.5753 42.1121 96.7037 42.1412L99.1715 42.1703L97.3824 42.3742ZM119.191 43.5104C120.795 44.1221 121.905 45.0544 122.491 46.307C122.954 47.2975 123.108 48.8124 123.386 54.493C123.664 60.5525 124.25 71.1564 124.774 79.8668L124.928 82.5761H119.314C116.199 82.5761 110.862 82.6635 107.438 82.78C103.86 82.8674 101.176 82.8382 101.207 82.6926C101.207 82.5469 102.071 81.1486 103.12 79.6046L105.032 76.7497L113.207 76.6332C117.71 76.5749 121.751 76.371 122.183 76.2253C123.386 75.7884 123.602 74.39 123.355 69.3211C123.232 66.9032 122.954 61.5721 122.769 57.4354C122.399 49.1328 122.029 46.8023 120.764 45.5787C119.962 44.7922 119.839 44.763 115.273 44.5591C112.682 44.4426 110.461 44.2678 110.276 44.1221C109.783 43.7726 106.174 43.5104 105.958 43.8308C105.649 44.2969 105.279 44.1804 105.094 43.5686C105.001 43.2482 105.001 42.9569 105.032 42.8986C105.31 42.6656 118.42 43.2191 119.191 43.5104ZM103.12 44.9961C101.577 45.637 101.176 46.2488 101.146 48.1132L101.115 49.5115L100.868 48.0258C100.745 47.181 100.529 46.3653 100.405 46.1614C99.9735 45.4913 98.1227 44.9961 96.0868 44.9961C94.0818 44.9961 94.0509 44.9961 93.6191 45.9574C93.3415 46.6275 93.0947 49.4824 92.8788 55.1922C92.6937 59.7659 92.4469 64.7766 92.3544 66.3205C92.231 68.0684 92.2618 69.1755 92.4469 69.1755C92.8788 69.1755 93.9584 65.7088 95.0072 60.8729C96.0868 55.9788 98.1535 48.4919 98.4311 48.4919C98.7704 48.4919 99.0172 51.0555 99.0172 54.1726C99.0172 56.911 98.9247 57.348 97.8142 60.1737C97.1356 61.8343 95.8709 65.4175 94.9763 68.1558C94.0818 70.8651 93.3106 73.1665 93.2489 73.2248C93.0022 73.5743 92.6628 72.7587 92.4778 71.2729C92.3544 70.2533 92.2927 71.1273 92.3544 73.5743C92.4161 77.2741 92.4778 77.6819 93.3106 79.2259L94.1743 80.8864L96.9814 80.7116C98.9247 80.566 99.9118 80.362 100.159 80.0416C100.344 79.8085 100.714 79.6629 100.961 79.7211C101.3 79.7794 101.238 80.0999 100.683 81.3234L99.9426 82.8674H95.4082H90.8429L91.028 79.022C91.1514 76.8954 91.3364 68.5637 91.4598 60.4942L91.7066 45.8409L92.6012 45.1418C93.4957 44.4135 93.6191 44.4135 98.9555 44.4426H104.415L103.12 44.9961ZM120.085 45.9574C120.579 46.2488 121.042 46.9188 121.227 47.5597C121.751 49.4824 122.121 55.2213 122.337 65.2718L122.553 74.9144L121.813 75.3805C121.196 75.8175 120.055 75.8758 113.145 75.8758C106.575 75.8758 105.248 75.8175 105.372 75.4679C105.526 75.0601 110.245 74.7396 117.155 74.6814C120.24 74.6522 120.332 74.6231 120.918 73.8365C121.473 73.1082 121.535 72.5547 121.535 69.1172C121.535 64.4852 121.011 50.9972 120.764 48.8997C120.456 46.5109 120.332 46.4235 116.044 46.074C113.978 45.8992 112.281 45.637 112.281 45.4913C112.281 45.3165 113.731 45.2583 115.798 45.3457C118.389 45.4331 119.499 45.6079 120.085 45.9574ZM10.8888 46.9479C11.043 47.181 7.8967 65.1261 7.58824 65.8836C7.34146 66.4662 3.54735 66.2914 3.54735 65.6796C3.54735 65.3592 3.88666 65.2718 4.93544 65.3301C7.434 65.4757 7.37231 65.6796 7.434 56.9692C7.4957 48.1423 7.61908 48.4919 4.71951 48.4919C2.96126 48.4919 2.71449 48.2006 3.60904 47.2684C4.04089 46.8314 4.59613 46.744 7.434 46.744C9.25395 46.744 10.8271 46.8314 10.8888 46.9479ZM135.385 47.3266C136.465 47.4723 137.483 47.7053 137.668 47.8801C138.038 48.2297 138.346 51.4633 139.642 69.0298C139.858 71.7973 139.951 71.739 133.103 71.8556L127.242 71.943L126.841 70.7777C126.378 69.525 126.07 66.2623 125.422 55.0465C125.144 50.1815 125.113 47.6471 125.298 47.3849C125.699 46.9479 132.362 46.8897 135.385 47.3266ZM139.21 48.1423C139.858 48.8124 140.197 51.2594 140.66 57.9597C141.555 71.5934 141.555 74.2735 140.475 75.2931C140.105 75.6427 127.458 75.7592 127.088 75.4096C126.933 75.264 126.687 74.6814 126.594 74.157C126.378 73.2539 126.44 73.1665 126.964 73.4287C127.273 73.5743 130.203 73.72 133.442 73.7783L139.364 73.8657L140.074 72.7878L140.783 71.6808L140.413 64.8931C139.827 54.3183 139.457 50.5603 138.809 48.9871C138.192 47.5597 138.346 47.2392 139.21 48.1423ZM21.5 49.832L22.4254 50.0068L22.6413 60.669C22.7956 69.1755 22.7647 71.3603 22.4562 71.5643C22.2403 71.6808 20.4204 71.7973 18.4462 71.7973C14.2511 71.7973 14.6212 72.2634 15.1148 67.7771C15.5466 63.9609 15.9168 61.6886 16.9964 56.4157C18.292 50.065 18.8164 49.3076 21.5 49.832ZM43.7095 50.4437C43.8637 50.735 43.9254 55.0465 43.8637 60.0281L43.7712 69.0881L41.1801 69.4085C39.6686 69.5833 38.0029 70.0203 37.1083 70.4572C35.7819 71.0981 35.1033 71.1855 30.5072 71.3603L25.3558 71.5643L25.1399 61.9799C24.924 52.4538 24.9857 51.4342 25.9727 50.3272C26.2195 50.0359 28.2862 49.9485 34.8874 49.9485C42.7532 49.9485 43.4935 49.9776 43.7095 50.4437ZM125.237 61.6012C126.07 75.8758 126.039 75.497 126.964 76.0797C127.643 76.4875 128.506 76.5167 133.812 76.3419C137.143 76.2545 140.197 76.0797 140.537 75.9923C141.277 75.8175 141.894 74.7687 141.894 73.6909C141.894 73.283 142.017 72.9626 142.171 72.9626C142.48 72.9626 142.819 81.4108 142.511 81.7604C142.418 81.8769 138.593 82.0517 133.997 82.1682L125.638 82.3721L125.422 77.4489C125.329 74.7396 125.082 70.4864 124.928 68.0102C124.404 59.9698 124.034 50.735 124.219 50.4146C124.527 49.9485 124.527 50.0068 125.237 61.6012ZM96.9814 66.0583C95.6858 69.7872 94.5136 72.9334 94.3594 73.0791C93.6499 73.8074 93.8967 72.6713 95.3156 68.6511C96.1485 66.2623 96.858 64.0774 96.858 63.8443C96.858 63.5822 97.3824 62.1838 98.0301 60.669C100.097 55.804 99.5108 58.9211 96.9814 66.0583ZM118.574 62.213C118.666 63.2034 118.759 66.0292 118.759 68.5054V73.0208L117.155 72.8169C116.26 72.7004 115.489 72.5547 115.428 72.5256C115.335 72.4382 117.217 63.1743 117.741 61.0768C118.019 59.9407 118.358 60.3777 118.574 62.213ZM85.6915 70.9816C85.5682 71.2729 83.8408 71.3895 78.9362 71.506C75.2963 71.5934 72.2733 71.6225 72.2116 71.5934C71.7489 71.3021 73.0136 71.1273 77.0237 70.9234C84.6736 70.5738 85.8149 70.6029 85.6915 70.9816ZM6.20014 74.4192C6.1693 75.2931 6.01506 76.1088 5.89168 76.2253C5.76829 76.3419 5.18221 76.0505 4.53443 75.5553C3.73242 74.9144 3.39311 74.4483 3.39311 73.8657C3.39311 72.7878 3.60904 72.6421 5.05882 72.7295L6.29268 72.8169L6.20014 74.4192ZM102.102 73.6909C102.102 74.1278 103.953 75.2057 103.953 74.7979C103.953 74.6522 104.076 74.7687 104.23 75.0018C104.662 75.5844 104.354 75.8758 103.336 75.8758C102.595 75.8758 102.349 76.0505 101.978 76.8954C101.423 78.148 101.022 78.2354 101.3 77.041C101.392 76.5458 101.331 76.1671 101.176 76.1671C100.991 76.1671 100.868 76.0214 100.868 75.8466C100.868 75.701 101.022 75.6427 101.176 75.7301C101.362 75.8466 101.485 75.3805 101.485 74.594C101.485 73.8657 101.639 73.2539 101.793 73.2539C101.978 73.2539 102.102 73.4578 102.102 73.6909ZM97.9376 76.4293C98.3077 77.0119 97.1047 77.6237 95.6858 77.6237C94.3594 77.6237 93.1255 77.2449 93.4649 76.9536C93.5574 76.8954 94.4519 76.7206 95.4699 76.5458C96.4878 76.371 97.4132 76.2253 97.5366 76.1962C97.66 76.1962 97.8142 76.2836 97.9376 76.4293ZM100.868 76.9245C100.868 77.1576 100.467 77.7693 99.9426 78.2354C99.0789 79.0511 98.9247 79.1094 96.7963 79.022C93.835 78.9055 93.9892 78.3811 97.0122 78.2646C99.1715 78.1772 99.3565 78.1189 100.004 77.3323C100.775 76.3419 100.868 76.2836 100.868 76.9245ZM35.4735 78.1189C35.4735 78.5267 35.0416 78.5559 31.0933 78.4102C28.6564 78.2937 25.3867 78.2063 23.8443 78.2063C22.1478 78.2063 20.9756 78.0898 20.9756 77.915C20.9756 77.7402 23.5976 77.6237 28.2245 77.6237C34.764 77.6237 35.4735 77.6819 35.4735 78.1189ZM59.472 78.1189C59.5646 78.4102 57.7446 78.4976 50.9892 78.4976C42.2288 78.4976 39.0517 78.3228 39.3601 77.8567C39.4527 77.7402 43.9871 77.6528 49.4161 77.6819C57.0043 77.7402 59.3486 77.8567 59.472 78.1189ZM6.32353 79.6629C6.44692 79.8377 9.56241 79.9833 14.4362 80.0125C21.6234 80.0707 21.9319 80.0999 17.5825 80.2455L12.8013 80.3912L12.7088 81.6147L12.6162 82.8674H9.59326C7.64993 82.8674 6.41607 82.7508 6.1076 82.4887C5.64491 82.1391 5.15136 79.8668 5.49067 79.5464C5.73745 79.2842 6.1076 79.3424 6.32353 79.6629ZM62.094 79.8085C62.1248 79.9833 60.274 80.1581 57.467 80.2455C54.9067 80.3329 52.6858 80.5077 52.5316 80.6242C52.4082 80.7699 52.3156 81.3525 52.3156 81.9352L52.3465 83.013H37.4476C23.9677 83.013 22.5179 82.9548 22.5179 82.5469C22.5179 82.0808 23.1349 80.2455 23.2891 80.2455C23.3199 80.2455 24.2762 80.6242 25.3867 81.1195C28.0703 82.2556 29.5201 81.8769 27.3917 80.566L26.3737 79.9542H33.8077C40.3781 79.9542 41.3651 80.0125 42.4448 80.5077C44.3572 81.3525 46.8558 82.1099 47.0717 81.906C47.1643 81.8186 46.9484 81.3234 46.5782 80.8573C46.0846 80.1581 46.023 79.9251 46.3314 79.8085C46.6399 79.692 59.9656 79.459 61.7855 79.5172C61.9397 79.5172 62.0631 79.6629 62.094 79.8085ZM67.0911 80.8282C69.4663 81.906 71.1628 82.0808 71.6872 81.3234C71.9649 80.8864 71.9032 80.7116 71.4405 80.3912C70.9161 80.0125 71.2862 79.9833 74.5868 80.0125L78.3501 80.0707V81.4399C78.3501 82.6052 78.2575 82.8382 77.6714 82.9839C76.4376 83.2752 63.6055 83.1878 63.3895 82.8674C63.1428 82.5178 64.4692 79.9542 64.8702 79.9542C65.0244 79.9542 66.0423 80.362 67.0911 80.8282ZM59.688 81.9934C60.3049 83.1004 60.0581 83.217 57.3745 83.1004L55.462 83.013L56.1098 82.2265C56.7267 81.4982 57.3128 81.2651 58.67 81.1486C58.9785 81.1486 59.4103 81.4982 59.688 81.9934ZM19.2482 81.8769C20.0811 82.6635 19.8034 82.8965 18.1377 82.8091C16.1636 82.6926 15.8242 81.9643 17.5825 81.673C18.1686 81.5564 18.693 81.469 18.7238 81.4399C18.7547 81.4399 19.0014 81.6147 19.2482 81.8769ZM143.128 86.4797C143.128 89.3055 143.004 90.4708 142.758 90.6456C142.264 90.9077 126.717 91.5778 126.409 91.3447C126.316 91.2573 126.162 89.3055 126.1 87.0332L126.008 82.8965L129.247 82.78C131.036 82.7508 134.892 82.6635 137.822 82.6343L143.128 82.5761V86.4797ZM125.237 87.4702C125.329 89.7716 125.298 91.7234 125.206 91.7817C125.113 91.84 122.121 91.8982 118.574 91.9274C115.027 91.9565 107.5 92.1604 101.824 92.3643C96.1485 92.5974 91.4598 92.7139 91.3981 92.6848C91.3364 92.6265 91.2131 90.6164 91.1205 88.1985L90.9046 83.8287L93.4957 83.6539C94.9146 83.5374 96.8271 83.45 97.7217 83.45C99.2948 83.45 99.3257 83.45 99.3257 84.324V85.1979H97.4749H95.6241V87.9654V90.7329H97.9067C100.837 90.7329 101.701 90.4125 102.256 89.1307C102.966 87.5576 102.842 86.6545 101.763 85.6058C101.053 84.9357 100.868 84.4988 101.022 84.0618C101.207 83.4791 101.423 83.45 108.518 83.3626C112.528 83.3335 117.926 83.3044 120.456 83.3044H125.082L125.237 87.4702ZM42.4448 83.7413H78.0416V88.1694V92.6265L44.5115 92.5683C26.0344 92.5391 9.80918 92.4226 8.45194 92.3061C5.45983 92.1021 5.67575 92.51 5.79914 87.1497C5.89168 83.9453 5.95337 83.4209 6.35438 83.5665C6.63199 83.6539 22.8572 83.7413 42.4448 83.7413ZM89.609 83.7996C89.6707 84.0035 89.7941 86.101 89.9175 88.4607L90.1026 92.7722H84.5502H78.967V88.4024C78.967 85.9845 78.9978 84.0035 79.0595 84.0035C79.0904 83.9744 81.2805 83.8579 83.9024 83.7413C86.5244 83.6539 88.8687 83.5374 89.0846 83.5083C89.3006 83.4791 89.5165 83.6248 89.609 83.7996ZM275.459 84.8775C275.459 85.2271 263.429 85.5184 216.697 86.3632C207.535 86.538 191.032 86.8584 179.989 87.0915C156.268 87.5867 153.4 87.6159 153.77 87.2663C154.078 87.0332 169.131 86.6836 208.06 86.0719C231.225 85.6932 269.012 84.9066 269.598 84.7901C270.616 84.557 275.459 84.6444 275.459 84.8775ZM97.1047 87.7324C97.043 89.3346 96.9197 89.7133 96.4878 89.8007C95.9943 89.8881 95.9326 89.6551 95.9326 88.0237C95.9326 86.2175 96.0868 85.8971 96.9505 85.8097C97.0739 85.7805 97.1664 86.6545 97.1047 87.7324ZM272.344 89.2181L272.251 92.3643L254.329 93.0344C244.489 93.4131 235.821 93.7626 235.05 93.8209C234.279 93.85 231.781 93.9666 229.467 94.054L225.272 94.1996L225.087 90.7912C225.025 88.9268 224.994 87.2954 225.056 87.208C225.118 87.0915 228.665 86.975 232.953 86.975C237.209 86.9458 240.788 86.8876 240.88 86.8293C240.973 86.771 246.957 86.6254 254.175 86.5088C261.393 86.3923 267.346 86.2467 267.408 86.1884C267.47 86.1301 268.642 86.0719 269.968 86.0719H272.405L272.344 89.2181ZM219.627 88.8977C219.627 89.8299 219.72 91.4612 219.812 92.51L220.028 94.4327L216.82 94.6075C215.062 94.724 209.263 95.0153 203.926 95.2484C188.133 95.9767 176.195 96.5302 167.651 96.9963C163.24 97.2293 158.829 97.4333 157.872 97.4333H156.083V93.0926V88.752L158.027 88.5772C159.075 88.4898 167.157 88.2859 175.979 88.082C184.801 87.878 195.69 87.645 200.194 87.5285C204.697 87.4119 210.897 87.3245 214.013 87.2954L219.627 87.2371V88.8977ZM223.02 91.3738C223.02 93.6461 222.958 95.4232 222.897 95.3649C222.619 95.0736 222.465 87.2371 222.712 87.2371C222.897 87.2371 223.02 88.9268 223.02 91.3738ZM221.385 87.7615C221.755 87.9946 221.94 92.1604 221.848 99.0646C221.817 101.686 221.725 102.357 221.324 102.473C220.923 102.648 220.861 101.978 220.861 97.0545C220.861 93.9666 220.768 90.5873 220.645 89.4803C220.46 87.5867 220.583 87.2954 221.385 87.7615ZM154.88 94.0831C154.819 97.1419 154.726 99.6764 154.664 99.7347C154.633 99.7638 154.448 99.7347 154.263 99.6181C154.047 99.5016 153.924 97.5206 153.924 93.9083C153.924 88.7811 153.955 88.3733 154.479 88.4607C154.973 88.5481 155.004 89.0142 154.88 94.0831ZM152.69 100.638C152.69 111.067 152.628 112.582 152.227 112.582C151.826 112.582 151.765 111.067 151.765 100.638C151.765 90.2086 151.826 88.6937 152.227 88.6937C152.628 88.6937 152.69 90.2086 152.69 100.638ZM224.316 95.7436C224.47 101.22 224.47 102.094 224.131 101.774C223.853 101.483 223.575 89.859 223.853 89.859C224.038 89.859 224.223 92.2478 224.316 95.7436ZM142.943 97.375C143.097 100.754 143.097 103.405 142.943 103.551C142.634 103.813 132.825 104.425 128.877 104.425H126.162V98.5985C126.162 95.394 126.131 92.6848 126.1 92.5391C126.039 92.4226 127.612 92.2478 129.555 92.1313C140.166 91.4904 141.77 91.403 142.202 91.4321C142.572 91.4612 142.696 92.4517 142.943 97.375ZM125.237 94.6657C125.237 96.7924 125.206 96.8506 124.466 96.8506C124.034 96.8506 123.602 96.8797 123.478 96.9089C123.355 96.9671 123.17 96.6176 123.077 96.1223C122.954 95.4523 122.707 95.2192 121.967 95.0736C121.443 94.9862 120.579 94.9571 120.024 95.0444C119.098 95.161 118.882 95.5397 119.037 96.7632C119.067 96.938 118.759 97.1419 118.389 97.2002C117.803 97.2585 117.679 97.4624 117.679 98.3072C117.679 99.0938 117.803 99.3268 118.235 99.2977C118.574 99.2686 118.759 99.4433 118.759 99.8803C118.759 100.23 118.944 100.754 119.16 101.046C119.53 101.512 119.839 101.57 121.319 101.395C122.862 101.191 123.077 101.104 123.077 100.55C123.077 99.5599 123.972 98.5403 124.712 98.6568C125.36 98.7442 125.391 98.8898 125.391 101.657V104.571L119.993 104.774C109.721 105.182 110.122 104.949 109.073 110.659C108.641 112.873 108.24 114.738 108.148 114.825C107.994 115 104.57 115.32 100.097 115.641C98.5854 115.728 96.2102 115.932 94.8529 116.107C93.4957 116.252 92.0151 116.369 91.5524 116.369H90.6887L90.7504 105.008L90.8429 93.6461H91.7683C92.2927 93.617 93.8042 93.5587 95.1614 93.5005C99.9426 93.2674 105.711 93.0635 112.898 92.8887C116.877 92.7722 120.209 92.6556 120.27 92.5974C120.332 92.5391 121.504 92.4809 122.831 92.4809H125.237V94.6657ZM12.7396 102.59C12.8321 107.862 13.0172 112.582 13.1406 113.106L13.3257 114.067L11.5366 113.98L9.74749 113.893L7.74247 110.834L5.73745 107.775L5.61406 100.579L5.49067 93.3839L6.81707 93.2674C7.55739 93.2092 9.16141 93.1509 10.3644 93.1217L12.5854 93.0635L12.7396 102.59ZM38.0029 93.617C38.1571 93.7335 38.3422 94.6366 38.4347 95.6271C38.6198 97.2876 38.589 97.5206 37.9412 98.1615C37.0775 99.0355 35.6277 99.1229 35.1958 98.3655C35.0416 98.1033 34.8257 97.2585 34.7023 96.5302L34.4864 95.161L28.7489 94.9862C25.5717 94.8988 21.3766 94.724 19.4024 94.6366C16.2869 94.4909 15.7317 94.5492 15.2999 94.9862C14.8063 95.4232 14.7755 96.268 14.868 103.871C14.9297 108.474 15.0531 112.32 15.1765 112.436C15.4232 112.698 62.3407 114.359 62.7109 114.126C63.1119 113.893 62.5875 97.2876 62.1557 95.9767C62.0323 95.598 60.49 95.5397 50.6808 95.5397C39.5452 95.5397 39.3293 95.5397 39.3293 94.9571C39.3293 94.6366 39.4218 94.1414 39.576 93.85C39.8228 93.3839 40.594 93.3257 51.3902 93.3548L62.9268 93.3839L63.4821 94.1705C63.9448 94.8405 64.0373 96.1223 64.1607 105.503C64.2532 112.203 64.4383 116.107 64.6234 116.165C65.0552 116.252 65.1786 99.9968 64.8085 96.9963C64.6234 95.7145 64.4075 94.4035 64.3149 94.0831C64.1298 93.5005 64.2532 93.5005 71.1628 93.5879C75.0187 93.6461 78.2267 93.7335 78.2884 93.7626C78.3501 93.8209 78.5043 97.4624 78.6277 101.832L78.8436 109.814L77.764 110.805C77.1471 111.329 75.3271 112.931 73.6923 114.33L70.7001 116.864L67.2145 116.777C65.2712 116.689 60.3049 116.515 56.1406 116.369C51.9763 116.223 40.8099 115.815 31.3092 115.466C21.8085 115.116 13.9118 114.738 13.7884 114.621C13.6341 114.504 13.3874 109.756 13.264 104.104C13.0481 96.2971 13.0789 93.7044 13.3565 93.4131C13.665 93.0344 15.5158 93.0052 25.7568 93.18C32.358 93.2965 37.8795 93.5005 38.0029 93.617ZM272.004 96.0349L271.912 99.0355L269.136 99.2394C267.624 99.3268 262.349 99.6473 257.414 99.8803C252.509 100.143 247.574 100.405 246.463 100.492C243.595 100.667 234.063 101.22 229.282 101.453L225.179 101.657V98.3946C225.179 95.2192 225.21 95.1027 225.889 94.9862C226.259 94.8988 233.169 94.5492 241.22 94.1996C249.27 93.8792 258.031 93.5005 260.653 93.3839C263.275 93.2383 266.945 93.1217 268.765 93.1217L272.097 93.0635L272.004 96.0349ZM86.8637 93.6461C88.3752 93.6461 88.807 93.7626 88.9921 94.1414C89.4857 95.2775 90.01 99.7929 90.0409 102.793V105.998L86.1851 109.843C84.0875 111.941 82.3601 113.747 82.3601 113.834C82.3601 113.922 83.8099 113.922 85.5682 113.834C89.2389 113.631 89.3931 113.747 88.8379 115.641L88.4677 116.922L84.5502 117.01L80.6636 117.097L80.7561 106.318C80.8486 95.8019 80.8178 95.5397 80.2009 94.7531C79.8307 94.287 79.6456 93.7918 79.7382 93.6461C79.8307 93.5005 81.0337 93.4422 82.4527 93.5005C83.8408 93.5879 85.8458 93.6461 86.8637 93.6461ZM4.31851 103.289C4.31851 109.436 4.22597 112.553 4.01004 112.436C3.82496 112.32 3.70158 108.882 3.70158 103.085C3.70158 97.1711 3.82496 93.9374 4.01004 93.9374C4.19512 93.9374 4.31851 97.2585 4.31851 103.289ZM219.689 98.7442L219.781 102.386L218.547 102.531C217.869 102.59 210.157 103.143 201.428 103.697C182.21 104.949 164.844 106.056 160.247 106.377C158.397 106.493 156.669 106.61 156.423 106.61C156.114 106.61 156.022 105.794 156.052 102.531C156.083 100.317 156.145 98.4529 156.176 98.4237C156.237 98.3655 169.286 97.7537 180.298 97.2876C185.758 97.0545 190.014 96.8215 191.402 96.705C192.081 96.6176 196.677 96.3554 201.582 96.0932C210.28 95.6271 217.56 95.2484 218.918 95.161C219.565 95.1027 219.596 95.1901 219.689 98.7442ZM80.1392 104.92C80.2317 115.67 79.769 118.379 79.4914 108.911C79.1521 98.9481 79.2138 95.6271 79.6765 95.7436C79.9541 95.8601 80.0775 98.0159 80.1392 104.92ZM121.381 96.8797C121.134 97.2293 119.684 97.2293 119.684 96.8797C119.684 96.5884 120.887 96.2971 121.319 96.501C121.443 96.5593 121.473 96.7341 121.381 96.8797ZM121.227 99.6181C121.227 99.8803 120.949 100.055 120.456 100.055C119.962 100.055 119.684 99.8803 119.684 99.6181C119.684 99.356 119.962 99.1812 120.456 99.1812C120.949 99.1812 121.227 99.356 121.227 99.6181ZM154.232 104.075C154.232 108.532 153.924 112.902 153.646 112.757C153.554 112.698 153.492 109.727 153.554 106.202C153.615 102.153 153.739 99.8221 153.924 99.9095C154.109 100.026 154.232 101.832 154.232 104.075ZM272.344 101.395C272.313 102.298 272.128 103.056 271.943 103.114C271.634 103.201 267.223 103.551 249.579 104.891C243.348 105.357 243.317 105.357 242.453 104.774C239.43 102.648 236.377 102.823 233.847 105.241C232.552 106.464 232.86 106.406 226.352 106.93L223.945 107.134V105.211V103.318L225.025 103.143C225.611 103.027 226.105 102.823 226.105 102.677C226.105 102.007 226.691 102.473 226.783 103.172C226.876 103.871 227.03 103.988 228.048 104.075C229.344 104.192 230.115 103.755 230.115 102.939C230.115 102.648 230.238 102.357 230.392 102.24C230.639 102.094 235.544 101.716 239.986 101.453C241.312 101.395 241.374 101.424 241.312 102.153C241.281 102.881 241.374 102.968 242.638 103.143C244.428 103.376 245.044 103.143 244.859 102.269C244.767 101.861 244.798 101.424 244.89 101.279C244.983 101.104 247.111 100.9 249.641 100.783L254.175 100.55V101.483C254.175 102.298 254.268 102.386 255.07 102.386C256.519 102.386 257.506 101.89 257.63 101.162C257.722 100.579 257.938 100.463 259.573 100.317C260.591 100.201 262.689 100.113 264.262 100.084C266.976 100.055 267.1 100.084 267.192 100.696C267.254 101.22 267.532 101.395 268.272 101.453C269.413 101.57 270.524 101.104 270.524 100.492C270.524 100.143 270.832 100.026 272.159 99.7929C272.282 99.7929 272.374 100.492 272.344 101.395ZM220.244 105.299C220.244 106.581 220.151 107.629 220.028 107.629C219.72 107.629 184.616 110.339 169.039 111.562C162.006 112.116 156.145 112.582 155.991 112.582C155.867 112.582 155.806 111.358 155.836 109.873L155.929 107.192L157.78 107.222C159.445 107.28 159.631 107.338 159.785 107.95C159.939 108.562 160.186 108.649 161.451 108.736C163.055 108.824 163.795 108.474 163.795 107.571C163.795 106.901 163.98 106.843 167.188 106.61C168.638 106.522 171.414 106.318 173.357 106.173C175.301 106.027 177.429 105.881 178.108 105.881C179.218 105.881 179.28 105.94 179.095 106.61C178.91 107.338 178.91 107.338 180.822 107.338C183.074 107.338 183.444 107.163 183.567 106.173C183.691 105.357 183.938 105.328 193.006 104.862L197.047 104.658L197.171 105.328C197.263 106.115 198.281 106.348 200.101 106.027C200.841 105.911 201.119 105.707 201.119 105.299C201.119 105.008 201.212 104.687 201.366 104.629C201.489 104.541 203.803 104.279 206.517 104.017C209.232 103.755 211.885 103.493 212.44 103.434C213.303 103.318 213.427 103.376 213.519 104.075C213.612 104.774 213.766 104.862 214.938 104.949C216.388 105.037 217.159 104.658 217.159 103.813C217.159 103.434 217.437 103.26 218.331 103.172C218.948 103.114 219.658 103.056 219.874 103.027C220.151 102.968 220.244 103.609 220.244 105.299ZM221.786 105.153C221.786 106.901 221.694 107.338 221.324 107.338C220.953 107.338 220.861 106.93 220.861 105.357C220.861 104.25 220.953 103.26 221.077 103.172C221.601 102.648 221.786 103.143 221.786 105.153ZM38.4656 105.299C41.2726 105.299 42.5681 105.415 42.5681 105.619C42.5681 105.998 19.8343 105.678 17.1506 105.27C16.2253 105.124 19.4333 105.095 24.9548 105.153C30.1062 105.241 36.1829 105.299 38.4656 105.299ZM54.6908 105.823C58.3615 105.881 61.3845 106.056 61.3845 106.202C61.3845 106.348 58.0531 106.464 53.9813 106.464C48.028 106.464 46.5782 106.377 46.5782 106.085C46.5782 105.503 46.9484 105.27 47.4727 105.474C47.7504 105.59 50.9892 105.736 54.6908 105.823ZM38.7123 106.755C40.3472 106.872 40.995 107.018 40.6248 107.163C39.8537 107.513 23.7518 107.047 23.7518 106.697C23.7518 106.406 34.5789 106.435 38.7123 106.755ZM224.532 109.144C225.488 109.552 226.105 109.989 226.105 110.28C226.105 110.717 225.457 110.805 221.262 110.98C218.578 111.096 215.154 111.271 213.612 111.387L210.836 111.562L210.959 120.651C211.021 127.264 210.959 129.77 210.712 129.77C210.527 129.77 210.373 129.682 210.373 129.536C210.373 129.42 210.28 125.312 210.157 120.418L209.972 111.533L210.867 111.183C211.36 111.009 213.797 110.776 216.296 110.688C221.231 110.455 225.148 110.047 222.866 109.989C221.138 109.96 211.638 110.513 210.62 110.717C209.849 110.863 209.756 110.805 209.756 110.164C209.756 108.532 211.669 108.183 219.534 108.358C222.372 108.445 223.236 108.562 224.532 109.144ZM61.2303 108.824C61.3537 108.999 61.3845 109.173 61.3228 109.232C61.076 109.465 46.8867 108.999 46.8867 108.736C46.8867 108.387 60.9835 108.445 61.2303 108.824ZM229.683 111.329C229.097 112.757 228.387 114.796 228.079 115.874C227.801 116.922 227.369 117.971 227.154 118.146C226.598 118.583 226.598 118.204 227.184 115.874C227.647 113.98 230.3 108.299 230.577 108.562C230.67 108.649 230.269 109.873 229.683 111.329ZM199.083 110.426C199.392 111.213 199.299 117.534 198.96 117.534C198.775 117.534 198.651 116.573 198.651 115.262C198.651 114.038 198.559 112.32 198.466 111.475C198.312 110.513 198.374 109.96 198.59 109.96C198.744 109.96 198.991 110.164 199.083 110.426ZM164.72 116.631C164.72 120.36 164.473 121.758 163.98 120.564C163.887 120.302 163.795 118.408 163.795 116.34C163.795 113.194 163.857 112.582 164.258 112.582C164.659 112.582 164.72 113.223 164.72 116.631ZM253.558 115.116C253.558 116.019 253.095 116.893 252.756 116.602C252.478 116.311 252.91 114.33 253.25 114.33C253.435 114.33 253.558 114.679 253.558 115.116ZM14.1894 115.204C17.3357 115.349 23.3816 115.611 27.6076 115.786C31.8644 115.932 41.6428 116.34 49.3544 116.631C57.066 116.952 66.3816 117.272 70.0215 117.389C78.6585 117.622 79.0904 117.651 79.5531 118.583C79.7382 118.991 79.8924 119.399 79.8924 119.486C79.8924 119.661 55.5854 119.369 48.429 119.107C32.3271 118.525 10.1176 117.155 8.42109 116.631C7.31062 116.282 6.63199 115.67 6.94046 115.204C7.18723 114.854 7.12554 114.854 14.1894 115.204ZM107.006 116.718C106.605 117.243 106.174 117.767 106.05 117.855C105.896 117.942 103.459 118.175 100.621 118.379C97.7834 118.583 94.3286 118.845 92.9096 118.962C91.4907 119.078 90.2877 119.078 90.1951 118.962C90.1334 118.845 90.226 118.408 90.411 118C90.8429 117.126 90.7504 117.155 99.3257 116.485C102.626 116.223 105.402 115.961 105.464 115.903C105.526 115.845 106.081 115.786 106.636 115.786H107.685L107.006 116.718ZM15.67 118.903C15.7934 120.01 15.9168 120.01 12.3386 119.457C9.2231 118.962 8.63702 118.758 8.63702 118.233C8.63702 117.796 10.8888 117.592 13.7267 117.825C15.5466 117.971 15.5775 117.971 15.67 118.903ZM89.3006 118.408L88.807 119.282H85.3214C83.3781 119.282 81.6198 119.34 81.373 119.428C80.9412 119.573 79.7999 118 80.1392 117.709C80.2317 117.622 82.4218 117.534 85.0438 117.534H89.7941L89.3006 118.408ZM20.9756 119.136C20.9756 119.836 20.9139 119.865 18.8164 119.865C17.6442 119.865 16.6571 119.777 16.6571 119.69C16.6571 119.107 18.1994 118.437 19.5258 118.408C20.8831 118.408 20.9756 118.466 20.9756 119.136ZM105.989 119.34C105.896 119.719 105.803 120.185 105.803 120.36C105.803 120.564 105.68 120.739 105.495 120.739C105.156 120.739 105.063 119.195 105.402 118.903C105.834 118.466 106.174 118.729 105.989 119.34ZM207.535 120.069L207.443 121.467L193.562 122.836C174.437 124.73 155.189 126.565 154.078 126.652C153.184 126.711 153.153 126.652 153.06 125.458C152.999 124.788 152.999 124.234 153.06 124.205C153.369 124.118 205.499 118.758 206.456 118.729L207.628 118.699L207.535 120.069ZM104.724 120.651C104.816 121.03 105.156 121.321 105.588 121.38C106.081 121.438 106.297 121.7 106.359 122.283C106.451 123.098 106.451 123.098 104.816 123.011L103.181 122.924L102.966 121.613C102.75 120.418 102.78 120.273 103.582 119.69C104.323 119.107 104.415 119.107 104.508 119.515C104.539 119.777 104.662 120.302 104.724 120.651ZM64.7468 120.039C65.5179 120.185 65.703 120.36 65.703 121.001V121.758L63.3895 121.671C61.2303 121.583 61.076 121.525 61.076 120.913C61.076 120.535 61.1686 120.156 61.292 120.069C61.5387 119.806 63.4821 119.806 64.7468 120.039ZM68.8802 120.739C69.0344 121.292 69.3121 121.321 74.4017 121.321C77.3321 121.321 80.0466 121.409 80.4476 121.496C80.9412 121.642 81.1263 121.554 81.1263 121.234C81.1263 120.476 81.7432 120.36 82.4527 120.972C82.8228 121.292 83.7482 121.7 84.5194 121.875C85.5373 122.108 83.6557 122.137 77.2704 122.02C72.5201 121.904 68.5409 121.787 68.4175 121.7C68.0782 121.525 68.109 120.156 68.4483 120.156C68.6026 120.156 68.7877 120.418 68.8802 120.739ZM87.8508 120.506C88.005 120.71 88.2518 121.205 88.3752 121.583C88.7145 122.632 87.9433 122.224 87.4189 121.088C87.0179 120.156 87.2647 119.836 87.8508 120.506ZM101.886 121.525C101.948 122.137 101.886 122.778 101.763 122.953C101.608 123.127 99.8192 123.361 97.5983 123.448C94.5445 123.594 93.5882 123.564 93.0639 123.215C92.6937 123.011 91.7374 122.661 90.9354 122.457C90.1026 122.283 89.4548 122.02 89.4548 121.904C89.4548 121.758 90.3185 121.583 91.3981 121.496C92.4469 121.38 95.038 121.117 97.1664 120.913C99.2948 120.68 101.176 120.506 101.362 120.476C101.577 120.476 101.793 120.943 101.886 121.525ZM207.905 122.341C207.905 122.574 207.844 122.778 207.782 122.778C207.72 122.778 195.69 124.089 181.038 125.691C166.386 127.293 154.14 128.604 153.862 128.604C153.06 128.604 153.184 127.759 154.017 127.585C154.387 127.526 162.253 126.652 171.506 125.662C180.76 124.701 192.266 123.448 197.109 122.924C207.659 121.787 207.905 121.758 207.905 122.341ZM7.86585 124.031L11.259 124.38L11.1664 129.041C11.1356 131.576 11.0122 133.731 10.9505 133.79C10.7963 133.935 2.99211 133.265 1.94333 133.003C1.48063 132.887 1.04878 132.566 0.987088 132.304C0.863702 131.692 1.11047 131.692 5.86083 132.246C7.80416 132.45 9.50072 132.566 9.6241 132.508C9.77834 132.42 9.87088 130.789 9.87088 128.896C9.87088 124.817 10.4878 125.312 4.62697 124.817C2.49857 124.613 0.740316 124.438 0.678623 124.409C0.647776 124.351 0.678623 124.089 0.802009 123.827C0.956241 123.419 1.29555 123.361 2.74534 123.506C3.70158 123.623 6.01506 123.856 7.86585 124.031ZM207.659 124.526C207.813 125.487 207.998 125.4 204.08 126.012C201.798 126.361 201.428 126.215 201.428 124.934C201.428 124.351 201.674 124.264 203.988 124.001C205.376 123.856 206.733 123.71 207.011 123.681C207.35 123.652 207.566 123.943 207.659 124.526ZM152.135 125.72C152.258 127.089 152.104 127.235 150.192 127.089C148.834 127.002 148.834 127.002 148.742 125.749L148.649 124.526H150.315H152.011L152.135 125.72ZM199.268 125.575C199.854 127.002 200.656 126.798 190.94 127.876C187.3 128.284 182.025 128.866 179.218 129.187C176.411 129.507 170.118 130.236 165.183 130.789C160.278 131.343 155.59 131.896 154.788 131.984L153.307 132.158V130.877C153.307 129.595 153.307 129.595 154.479 129.536C155.651 129.478 162.561 128.692 183.537 126.303C190.23 125.516 196.461 124.875 197.356 124.846C198.836 124.817 198.991 124.875 199.268 125.575ZM7.34146 126.623C7.434 127.293 7.34146 127.41 6.90961 127.235C6.5703 127.119 6.23099 127.264 5.95337 127.614C5.7066 127.905 5.36729 128.167 5.15136 128.167C4.93544 128.167 4.71951 128.488 4.68867 128.866C4.59613 129.391 4.68867 129.507 5.05882 129.391C5.33644 129.274 5.55237 129.333 5.55237 129.478C5.55237 129.624 5.89168 129.828 6.32353 129.944C7.37231 130.177 7.27977 130.527 6.1693 130.76C4.90459 130.993 4.07174 130.44 3.67073 129.129C3.42396 128.167 3.48565 127.905 4.16428 126.856C4.90459 125.749 5.05882 125.662 6.1076 125.749C7.09469 125.837 7.24892 125.953 7.34146 126.623ZM42.6298 126.798C42.7224 126.915 42.8766 128.429 42.9383 130.206L43.0308 133.411L36.8307 133.294C33.4067 133.236 29.7977 133.12 28.8106 133.003L26.9907 132.828L26.8981 129.507L26.8056 126.186L34.6098 126.39C38.8974 126.507 42.5065 126.711 42.6298 126.798ZM207.597 127.293C207.597 127.759 208.275 127.643 195.875 129.07C181.84 130.643 157.348 133.528 155.466 133.819C153.708 134.081 153.029 133.994 153.554 133.498C153.708 133.353 158.736 132.654 164.751 131.925C186.313 129.362 206.425 126.856 206.826 126.74C207.288 126.594 207.597 126.827 207.597 127.293ZM89.4857 127.905C90.8737 128.196 91.1514 129.187 91.0588 133.091C91.028 135.625 90.8737 136.761 90.5344 137.256L90.0717 137.926L80.571 137.897C75.358 137.868 69.2195 137.781 66.9369 137.664L62.7726 137.489L62.6801 132.42L62.6184 127.352L75.6356 127.555C82.8228 127.643 89.0538 127.818 89.4857 127.905ZM152.382 128.313C152.382 128.459 151.61 128.604 150.685 128.604C149.76 128.604 148.989 128.459 148.989 128.313C148.989 128.138 149.76 128.022 150.685 128.022C151.61 128.022 152.382 128.138 152.382 128.313ZM207.535 129.245L207.443 130.206L200.656 131.139C196.924 131.663 185.758 133.207 175.856 134.605L157.841 137.111L157.348 136.499C156.885 135.945 156.638 135.887 155.065 136.062C153.4 136.237 153.307 136.237 153.307 135.625C153.307 135.305 153.338 135.013 153.4 134.984C153.924 134.868 205.869 128.371 206.61 128.342C207.597 128.313 207.628 128.371 207.535 129.245ZM3.79412 130.41C4.04089 131.226 3.9792 131.284 2.71449 131.168L1.69656 131.08L2.40603 130.41C3.26973 129.595 3.57819 129.595 3.79412 130.41ZM225.951 132.537C226.228 133.498 226.876 135.042 227.369 135.945C228.511 138.159 228.017 138.13 226.783 135.945C225.796 134.227 224.84 131.313 224.902 130.206C224.902 129.624 224.902 129.624 225.179 130.206C225.303 130.527 225.642 131.576 225.951 132.537ZM152.382 130.41C152.351 131.809 152.011 132.1 150.5 132.1H148.989V131.08V130.061H150.685C151.826 130.061 152.382 130.177 152.382 130.41ZM218.732 131.576C219.288 133.877 221.015 137.227 221.848 137.752C222.28 138.014 222.773 138.567 222.958 138.975C223.421 139.907 223.421 139.966 222.928 139.966C222.465 139.966 220.923 138.48 220.151 137.285C219.596 136.441 218.27 132.654 217.961 130.993C217.684 129.449 218.301 129.944 218.732 131.576ZM224.562 135.45C225.118 136.412 225.796 137.46 226.074 137.752C226.444 138.159 226.475 138.276 226.136 138.189C225.334 137.926 222.989 133.877 222.712 132.187C222.557 131.284 222.527 130.41 222.65 130.236C222.742 130.061 222.989 130.76 223.174 131.809C223.39 132.916 223.945 134.431 224.562 135.45ZM216.203 132.828C216.419 133.79 217.098 135.392 217.684 136.412C218.948 138.596 218.856 139.15 217.56 137.14C216.45 135.421 215.709 133.528 215.432 131.809C215.123 129.915 215.74 130.702 216.203 132.828ZM207.905 131.517C207.905 131.925 207.628 132.129 206.918 132.246C203.803 132.741 161.481 138.451 159.723 138.626C158.428 138.742 158.242 138.684 158.242 138.189C158.242 137.897 158.428 137.635 158.643 137.635C159.384 137.635 202.075 131.692 204.512 131.255C207.011 130.789 207.905 130.877 207.905 131.517ZM214.013 132.45C214.198 133.294 214.445 134.314 214.568 134.722C214.692 135.13 214.661 135.334 214.506 135.217C214.167 134.897 213.18 130.935 213.458 130.935C213.581 130.935 213.828 131.634 214.013 132.45ZM211.607 132.333C211.638 132.857 212.1 134.11 212.995 136.033C213.427 136.994 213.458 137.111 213.057 136.79C212.378 136.266 210.712 131.313 211.329 131.692C211.484 131.78 211.607 132.071 211.607 132.333ZM221.354 134.081C221.663 134.838 222.372 136.091 222.928 136.849C223.514 137.635 223.915 138.334 223.822 138.422C223.452 138.771 221.077 135.042 220.398 132.974C219.966 131.721 220.799 132.683 221.354 134.081ZM152.474 133.702C152.412 133.848 151.703 134.023 150.839 134.081C149.605 134.139 149.297 134.081 149.297 133.702C149.297 133.324 149.605 133.265 150.932 133.324C151.796 133.382 152.505 133.528 152.474 133.702ZM152.382 136.091C152.382 136.703 152.227 136.761 150.839 136.761C149.544 136.761 149.297 136.674 149.297 136.237C149.297 135.479 149.359 135.45 150.963 135.45C152.227 135.421 152.382 135.508 152.382 136.091ZM108.981 152.871C109.999 154.095 109.968 154.619 108.95 153.57C108.179 152.784 106.112 149.579 106.112 149.171C106.112 148.996 106.544 149.492 107.099 150.307C107.623 151.094 108.456 152.259 108.981 152.871ZM104.539 153.221C105.248 153.832 105.803 154.502 105.803 154.648C105.803 155.085 102.75 152.201 102.256 151.327C101.423 149.783 101.485 149.23 102.349 150.599C102.873 151.385 103.86 152.58 104.539 153.221ZM110.77 150.948C111.171 151.56 111.973 152.638 112.559 153.337C113.392 154.298 113.484 154.531 113.022 154.298C112.435 154.007 109.813 150.54 109.813 150.074C109.813 149.637 110.091 149.9 110.77 150.948Z" fill="white"/>
<path d="M105.804 8.78537C93.3417 18.3406 89.6093 21.3412 89.8561 21.5742C90.2571 21.9821 109.197 7.24139 109.197 6.48396C109.197 6.16351 109.413 6.01785 105.804 8.78537Z" fill="white"/>
<path d="M159.322 69.7581L156.237 69.9329L158.705 70.0494C161.389 70.166 161.265 70.166 164.967 69.962C166.386 69.8746 167.62 69.729 167.743 69.6416C167.928 69.4377 163.764 69.4959 159.322 69.7581Z" fill="white"/>
<path d="M97.3822 39.0533C97.1355 39.2863 97.4131 39.7524 97.8141 39.7524C97.9683 39.7524 98.0917 39.5485 98.0917 39.3155C98.0917 38.8785 97.7216 38.7328 97.3822 39.0533Z" fill="white"/>
<path d="M27.4532 126.944C27.3606 127.031 27.3298 128.225 27.3915 129.595C27.484 131.954 27.5457 132.1 28.2552 132.275C28.6562 132.362 31.9259 132.479 35.5349 132.508L42.1052 132.537L42.1978 130.352C42.3212 127.031 42.7222 127.206 34.5479 126.973C30.7229 126.885 27.5457 126.856 27.4532 126.944ZM41.4575 128.08C41.8276 129.74 41.8893 131.75 41.6117 132.013C41.2107 132.391 28.687 132.129 28.1626 131.75C27.7308 131.43 27.6074 127.992 27.9776 127.643C28.0701 127.526 31.1239 127.439 34.7329 127.439C41.3032 127.439 41.3341 127.439 41.4575 128.08Z" fill="white"/>
<path d="M64.3457 129.886C64.2532 130.702 64.1606 132.391 64.1606 133.615C64.1606 135.567 64.2532 135.916 64.7776 136.179C65.4562 136.528 84.4268 137.023 87.604 136.761L89.609 136.616L89.7015 133.032L89.7941 129.449L88.7761 129.07C88.005 128.779 84.9512 128.633 76.1599 128.546L64.5308 128.429L64.3457 129.886ZM66.1657 129.799C66.505 130.41 66.8134 130.643 67.1528 130.527C67.5229 130.381 67.5846 130.498 67.4304 131.051C66.8134 133.353 70.2682 136.703 71.8106 135.246C72.0573 135.013 72.2733 135.013 72.6743 135.334C73.1061 135.683 73.2604 135.625 73.939 134.897L74.7101 134.052L75.4505 134.809C76.5918 135.975 78.4117 135.916 79.6147 134.693C80.6635 133.615 80.8177 134.198 79.769 135.392L79.0595 136.237L73.9081 136.12C69.9598 136.062 68.6951 135.945 68.51 135.625C68.2941 135.305 68.0473 135.305 67.2453 135.567C65.8572 136.004 65.086 135.975 65.086 135.45C65.086 135.188 65.3637 135.013 65.8572 135.013C67.2453 135.013 67.6771 132.945 66.3507 132.537C65.4562 132.275 64.6233 131.255 64.9935 130.906C65.2094 130.702 65.4562 130.847 65.8264 131.343C66.4433 132.246 66.9368 132.333 66.9368 131.517C66.9368 131.197 66.5667 130.76 66.0423 130.527C65.1477 130.09 64.6542 129.391 64.9935 129.07C65.3637 128.721 65.703 128.925 66.1657 129.799ZM68.7876 129.129C68.7876 129.245 68.51 129.507 68.1707 129.711C67.6771 130.003 67.5538 130.003 67.5538 129.653C67.5538 129.42 67.7388 129.158 67.9548 129.1C68.5408 128.866 68.7876 128.866 68.7876 129.129ZM72.7977 129.478C72.7977 129.624 72.736 129.77 72.6743 129.77C72.5817 129.77 72.4275 129.624 72.335 129.478C72.2424 129.303 72.3041 129.187 72.4583 129.187C72.6434 129.187 72.7977 129.303 72.7977 129.478ZM75.4505 130.44C74.8952 131.459 74.7718 131.576 74.7101 131.022C74.5868 130.236 75.142 129.187 75.6972 129.187C76.0057 129.187 75.9132 129.507 75.4505 130.44ZM78.6276 129.624C79.8307 130.207 80.1083 130.935 79.1212 130.935C78.6893 130.935 78.35 131.051 78.35 131.226C78.35 131.372 77.7331 131.517 76.9619 131.517C76.1908 131.517 75.5738 131.401 75.5738 131.255C75.5738 130.847 76.3759 130.323 76.6535 130.585C76.8077 130.702 76.8077 130.614 76.6843 130.41C76.345 129.886 76.6843 129.187 77.2704 129.187C77.548 129.187 78.1649 129.391 78.6276 129.624ZM80.6018 129.391C80.6944 129.536 80.6327 129.857 80.5401 130.148C80.355 130.643 80.2934 130.614 79.954 129.944C79.6764 129.333 79.6764 129.187 80.0466 129.187C80.2625 129.187 80.5401 129.274 80.6018 129.391ZM85.6915 130.381C86.1542 131.488 86.2467 131.547 87.203 131.459C88.2518 131.343 88.406 131.576 88.0358 132.508C87.9433 132.77 87.6657 132.974 87.4189 132.974C86.7711 132.974 86.8945 133.469 87.604 133.644C88.4677 133.848 88.3751 134.168 87.1413 135.013C86.5552 135.421 86.0616 135.916 86.0616 136.091C86.0616 136.849 85.4447 136.441 85.4447 135.683V134.897L84.5193 135.742C83.5631 136.616 83.4705 136.528 83.5939 134.926C83.6248 134.489 83.5014 134.139 83.3163 134.139C83.1312 134.139 82.977 134.518 82.977 135.013C82.977 135.479 82.8536 135.887 82.6685 135.887C82.4835 135.887 82.3601 135.072 82.3601 133.994V132.1H83.2546C84.4576 132.1 84.6736 131.401 83.7482 130.673C82.7611 129.944 82.7611 129.536 83.8407 129.391C84.3034 129.333 84.7969 129.245 84.9203 129.216C85.0746 129.216 85.4139 129.711 85.6915 130.381ZM71.8723 129.915C72.5817 130.731 71.8106 131.022 70.515 130.469C69.8981 130.177 69.4045 129.857 69.4045 129.711C69.4045 129.303 71.4713 129.478 71.8723 129.915ZM70.6384 130.935C70.6384 131.255 69.2195 131.459 68.7568 131.226C68.5717 131.11 68.4792 130.877 68.5717 130.731C68.7876 130.41 70.6384 130.585 70.6384 130.935ZM80.0157 132.595C79.7073 134.285 78.8127 135.305 77.6714 135.305C76.9002 135.305 76.8077 135.217 77.0853 134.897C77.3012 134.664 77.7948 134.401 78.1958 134.314C79.1829 134.081 79.1829 133.557 78.1958 133.557C77.6406 133.557 77.4246 133.411 77.4246 133.032C77.4246 132.217 77.7639 132.042 78.3809 132.566C79.0595 133.149 79.6764 132.828 79.4297 132.071C79.2754 131.692 79.368 131.517 79.7381 131.517C80.1391 131.517 80.2008 131.721 80.0157 132.595ZM69.4971 132.799C69.713 133.324 69.4662 133.557 68.9418 133.353C68.6951 133.294 68.6025 133.032 68.6951 132.799C68.911 132.275 69.2812 132.275 69.4971 132.799ZM72.0882 132.683C72.8594 132.683 72.7668 133.469 71.8414 134.401C71.2245 135.013 69.713 135.246 69.713 134.722C69.713 134.547 69.8981 134.431 70.114 134.431C70.3608 134.431 70.7926 134.198 71.0703 133.877C71.5638 133.353 71.5638 133.324 70.7926 133.149C70.3608 133.032 70.0215 132.828 70.0215 132.654C70.0215 132.45 70.2991 132.391 70.7309 132.508C71.1011 132.595 71.718 132.683 72.0882 132.683ZM76.5609 133.324C76.0982 133.761 75.7589 133.44 76.0057 132.799C76.1599 132.421 76.2833 132.362 76.5609 132.624C76.8386 132.887 76.8386 133.061 76.5609 133.324Z" fill="white"/>
<path d="M84.8281 132.828C84.8281 133.469 84.9515 133.586 85.5376 133.498C85.9694 133.44 86.2162 133.207 86.2162 132.828C86.2162 132.45 85.9694 132.217 85.5376 132.158C84.9515 132.071 84.8281 132.187 84.8281 132.828Z" fill="white"/>
<path d="M83.2856 132.654C82.8229 132.77 82.6687 132.945 82.8846 133.061C83.2856 133.294 84.211 133.032 84.211 132.654C84.211 132.508 84.1802 132.391 84.1493 132.421C84.0876 132.45 83.7175 132.537 83.2856 132.654Z" fill="white"/>
<path d="M125.175 106.348C120.672 106.552 116.507 106.843 115.921 106.988C115.181 107.163 114.718 107.542 114.225 108.387C113.577 109.494 111.634 116.893 111.88 117.301C111.942 117.447 112.405 117.534 112.867 117.534C113.7 117.534 113.762 117.447 114.132 115.553C114.595 113.252 115.428 111.125 116.322 109.96C117.217 108.824 118.389 108.62 127.242 108.037C136.095 107.484 136.373 107.425 136.002 106.522C135.786 105.998 135.54 105.881 134.583 105.911C133.936 105.94 129.71 106.144 125.175 106.348Z" fill="white"/>
<path d="M134.954 108.358C134.799 108.416 131.53 108.678 127.705 108.94C120.517 109.406 118.389 109.727 117.433 110.397C116.6 110.98 115.058 114.767 115.058 116.252V117.534H116.878H118.667L120.271 115.786C122.923 112.902 126.224 111.562 131.406 111.242C134.244 111.067 134.429 111.067 135.663 111.824C137.267 112.757 137.576 112.786 136.681 111.883C135.941 111.125 136.002 110.688 137.02 110.018C137.699 109.552 137.761 108.62 137.082 108.387C136.558 108.212 135.478 108.183 134.954 108.358Z" fill="white"/>
<path d="M233.199 109.902C230.763 111.475 229.22 114.767 228.079 120.884C227.524 123.885 227.524 125.633 228.141 128.633C229.313 134.605 230.793 137.519 233.662 139.383C235.359 140.49 235.914 140.461 238.104 139.354C239.708 138.567 240.017 138.247 241.127 136.237C241.806 135.013 242.515 133.411 242.7 132.683C243.317 130.294 243.718 125.342 243.533 123.098C242.978 116.689 241.744 113.135 239.307 110.747C237.95 109.377 237.919 109.377 235.945 109.406C234.618 109.406 233.724 109.581 233.199 109.902ZM237.395 115.495C238.69 115.932 239.893 117.913 240.479 120.564C240.88 122.487 240.911 123.186 240.603 125.342C240.202 127.818 238.844 131.488 237.95 132.421C237.333 133.061 235.729 133.702 235.42 133.411C235.297 133.324 235.482 133.003 235.821 132.741C237.456 131.488 238.32 129.653 239.215 125.691C239.585 124.089 239.585 123.506 239.215 121.904C238.659 119.34 237.796 117.563 236.623 116.544C235.914 115.903 235.76 115.612 236.037 115.437C236.531 115.145 236.346 115.145 237.395 115.495ZM236.531 117.243C237.425 118.146 238.443 121.584 238.443 123.71C238.443 127.264 236.222 132.683 234.742 132.683C233.909 132.683 233.755 132.333 234.495 131.984C235.482 131.517 236.839 128.896 237.24 126.682C237.919 122.953 236.963 118.583 235.112 117.243L234.341 116.66H235.143C235.605 116.66 236.192 116.922 236.531 117.243ZM233.446 120.127C233.539 120.36 233.415 120.477 233.169 120.389C232.953 120.331 232.706 120.098 232.644 119.894C232.552 119.661 232.675 119.544 232.922 119.632C233.138 119.69 233.385 119.923 233.446 120.127ZM232.891 121.933C232.891 122.283 232.058 122.254 231.811 121.904C231.472 121.409 231.966 120.972 232.459 121.35C232.706 121.525 232.891 121.787 232.891 121.933ZM235.266 123.128C235.174 123.361 235.081 123.273 235.081 122.953C235.05 122.632 235.143 122.457 235.235 122.574C235.328 122.661 235.359 122.924 235.266 123.128ZM233.816 124.235C233.816 124.38 233.6 124.526 233.354 124.526C233.107 124.526 232.891 124.38 232.891 124.235C232.891 124.06 233.107 123.943 233.354 123.943C233.6 123.943 233.816 124.06 233.816 124.235ZM232.089 126.012C231.996 126.157 231.781 126.215 231.626 126.099C231.472 126.012 231.41 125.808 231.534 125.662C231.626 125.516 231.842 125.458 231.996 125.575C232.151 125.662 232.212 125.866 232.089 126.012ZM233.076 126.769C232.737 127.089 232.552 126.652 232.798 126.099C233.014 125.575 233.045 125.575 233.138 126.07C233.199 126.361 233.169 126.682 233.076 126.769Z" fill="white"/>
<path d="M128.321 112.261C124.589 113.223 123.201 113.98 121.103 116.107C120.024 117.214 119.006 118.117 118.851 118.117C118.605 118.117 117.772 119.515 117.402 120.506C117.186 121.205 117.618 121.146 118.913 120.331C120.856 119.078 123.849 118.321 125.915 118.525C131.097 119.02 136.249 124.205 137.699 130.323C137.976 131.488 138.192 133.149 138.192 133.994V135.508L141.369 136.412C143.097 136.907 144.855 137.373 145.287 137.402L146.058 137.489L146.151 134.431C146.305 129.507 145.071 124.409 142.634 119.777C140.074 114.971 138.994 113.572 137.729 113.368C137.143 113.281 136.249 112.902 135.724 112.523C134.429 111.65 131.159 111.504 128.321 112.261Z" fill="white"/>
<path d="M138.902 112.494C139.025 112.582 139.118 112.815 139.118 113.019C139.118 113.252 139.426 113.66 139.827 113.951C142.11 115.67 145.781 124.205 146.552 129.478C146.891 131.896 146.953 137.868 146.644 138.626C146.49 138.975 146.644 139.092 147.292 139.092H148.156L147.971 133.324C147.755 125.866 146.768 121.38 144.207 116.165C142.819 113.31 142.48 112.99 140.753 112.727C139.981 112.611 139.179 112.494 138.994 112.465C138.809 112.407 138.748 112.436 138.902 112.494Z" fill="white"/>
<path d="M112.466 118.903C112.374 119.37 112.219 120.01 112.096 120.36C111.911 121.001 111.973 121.03 114.255 121.03C115.674 121.03 116.6 120.914 116.6 120.739C116.6 120.564 116.877 119.894 117.186 119.282L117.772 118.117H115.211C112.682 118.117 112.651 118.117 112.466 118.903Z" fill="white"/>
<path d="M122.152 119.661C121.288 119.952 119.715 120.739 118.666 121.409C117.062 122.457 116.6 122.924 115.767 124.526C114.039 127.934 112.559 135.45 111.942 143.753L111.572 148.851L112.374 150.453C113.793 153.25 117.618 156.571 120.301 157.299C120.733 157.416 121.165 157.649 121.258 157.794C121.566 158.26 125.854 157.503 127.643 156.658C129.74 155.668 131.375 154.328 133.133 152.143C134.984 149.9 136.218 147.103 137.082 143.199C137.73 140.403 137.76 139.645 137.545 136.004C137.205 129.74 136.002 126.594 132.578 122.924C130.542 120.739 128.476 119.632 125.885 119.34C124.095 119.136 123.479 119.195 122.152 119.661ZM129.154 129.07C129.771 129.973 129.494 130.265 128.476 129.828C126.594 129.012 124.682 129.595 122.399 131.663C120.456 133.44 119.654 135.363 119.468 138.771C119.376 140.344 119.376 141.976 119.499 142.384C119.777 143.461 122.399 146.608 123.417 147.103C124.404 147.598 126.964 147.686 128.198 147.249C129.555 146.753 129.401 147.132 127.797 148.239C126.193 149.375 125.545 149.521 125.545 148.851C125.545 148.21 124.311 147.831 123.479 148.21C123.078 148.385 122.769 148.618 122.769 148.763C122.769 149.2 122.214 148.996 121.227 148.21C120.394 147.569 120.27 147.307 120.425 146.578C120.641 145.617 119.962 144.335 119.253 144.335C118.728 144.335 118.451 143.724 118.173 141.772C117.988 140.636 118.05 140.17 118.358 139.936C118.821 139.558 118.913 137.606 118.451 137.169C118.235 136.965 118.235 136.353 118.481 135.275C118.913 133.265 119.53 132.304 120.27 132.537C121.103 132.77 122.06 131.343 121.566 130.585C121.072 129.828 121.381 129.07 122.337 128.604C123.016 128.255 123.232 128.255 124.188 128.75C125.052 129.187 125.391 129.216 126.008 128.954C126.44 128.779 126.779 128.429 126.779 128.196C126.779 127.526 128.537 128.196 129.154 129.07ZM129.216 131.08C129.278 131.168 129.185 131.401 129 131.576C128.784 131.78 128.63 132.479 128.63 133.178C128.63 134.372 128.599 134.431 127.704 134.431C127.088 134.431 126.471 134.693 125.946 135.188C125.237 135.858 125.113 135.887 124.867 135.479C124.712 135.217 124.311 135.013 124.003 135.013C123.016 135.013 123.324 133.964 124.805 132.304L125.514 131.517L125.607 132.887C125.699 134.518 126.316 134.751 127.057 133.498C127.458 132.857 127.458 132.537 127.18 131.838C126.995 131.372 126.933 130.876 127.057 130.789C127.242 130.585 128.938 130.818 129.216 131.08ZM131.56 133.557C132.146 134.634 132.146 135.013 131.56 135.013C131.283 135.013 130.943 135.305 130.789 135.654C130.604 136.149 130.512 136.178 130.512 135.829C130.481 135.567 130.203 135.159 129.833 134.926C129.216 134.489 129.216 134.489 129.802 134.314C130.141 134.198 130.512 133.79 130.604 133.411C130.851 132.479 130.974 132.508 131.56 133.557ZM129.185 135.654C129.093 135.858 128.846 136.033 128.63 136.033C128.414 136.033 128.167 135.858 128.105 135.654C128.013 135.45 128.229 135.305 128.63 135.305C129.031 135.305 129.247 135.45 129.185 135.654ZM123.849 137.664C124.281 137.752 124.496 138.072 124.558 138.713C124.651 139.47 124.527 139.645 123.941 139.733C123.479 139.791 123.201 140.053 123.139 140.461C123.078 140.84 122.923 141.131 122.769 141.131C122.337 141.131 122.121 139.703 122.337 138.159C122.522 136.965 122.615 136.761 122.892 137.111C123.078 137.373 123.509 137.606 123.849 137.664ZM129.555 137.752C129.555 138.159 128.661 138.655 128.383 138.363C128.198 138.189 128.938 137.344 129.278 137.344C129.432 137.344 129.555 137.519 129.555 137.752ZM126.964 138.626C127.18 139.47 126.933 139.966 126.286 139.966C126.008 139.966 125.854 139.645 125.854 138.946C125.854 137.752 126.656 137.519 126.964 138.626ZM132.331 138.946C132.331 139.762 132.208 139.966 131.715 139.966C131.375 139.966 131.098 139.791 131.098 139.587C131.098 139.412 131.005 138.946 130.913 138.567C130.758 138.014 130.851 137.926 131.529 137.926C132.239 137.926 132.331 138.043 132.331 138.946ZM129.247 140.548C129.247 140.694 128.969 140.84 128.63 140.84C128.291 140.84 128.013 140.694 128.013 140.548C128.013 140.373 128.291 140.257 128.63 140.257C128.969 140.257 129.247 140.373 129.247 140.548ZM125.514 143.403C125.206 143.607 124.928 144.044 124.928 144.364C124.928 145.384 123.91 144.86 123.139 143.491C122.461 142.267 122.461 142.238 123.047 142.384C123.417 142.471 123.88 142.296 124.188 141.976C124.712 141.422 124.743 141.422 125.422 142.209C126.07 142.995 126.07 143.024 125.514 143.403ZM131.375 142.791C131.437 142.821 131.159 143.345 130.758 143.957C130.111 144.918 130.018 144.976 129.925 144.423C129.864 144.073 129.617 143.636 129.401 143.461C129.031 143.17 129.031 143.024 129.494 142.442C129.987 141.801 130.049 141.801 130.635 142.238C130.974 142.5 131.314 142.762 131.375 142.791ZM127.643 142.529C127.704 142.733 127.55 142.879 127.273 142.879C126.995 142.879 126.779 142.675 126.779 142.413C126.779 141.917 127.458 142.005 127.643 142.529ZM127.89 144.772C127.92 146.345 127.92 146.375 127.026 146.375C126.316 146.375 126.131 146.258 126.286 145.908C126.378 145.646 126.471 145.005 126.471 144.481C126.471 143.694 126.625 143.491 127.18 143.374C127.55 143.316 127.859 143.228 127.859 143.199C127.859 143.199 127.89 143.898 127.89 144.772Z" fill="white"/>
<path d="M110.584 121.613C110.153 122.37 109.165 134.11 108.98 141.189L108.826 147.249H109.875C111.14 147.249 111.016 147.831 111.849 139.237C112.127 136.149 112.651 132.916 113.083 131.372C114.348 126.769 115.242 124.118 115.921 122.865C116.291 122.195 116.599 121.583 116.599 121.554C116.599 121.409 110.677 121.467 110.584 121.613Z" fill="white"/>
</svg>
