<svg width="40" height="40" viewBox="0 0 40 40" fill="none" xmlns="http://www.w3.org/2000/svg">
<path d="M14.5747 14.1455V12.9698C14.5747 10.2425 16.7416 7.5637 19.4352 7.30915C22.6436 6.994 25.3491 9.55157 25.3491 12.7395V14.4122" stroke="black" stroke-width="1.5" stroke-miterlimit="10" stroke-linecap="round" stroke-linejoin="round"/>
<path d="M16.3705 31.5152H23.5534C28.366 31.5152 29.228 29.5637 29.4794 27.188L30.3772 19.9152C30.7005 16.9577 29.8625 14.5455 24.7506 14.5455H15.1733C10.0614 14.5455 9.22343 16.9577 9.54666 19.9152L10.4445 27.188C10.6959 29.5637 11.5579 31.5152 16.3705 31.5152Z" stroke="black" stroke-width="1.5" stroke-miterlimit="10" stroke-linecap="round" stroke-linejoin="round"/>
<path d="M24.1464 19.394H24.1572" stroke="black" stroke-width="2" stroke-linecap="round" stroke-linejoin="round"/>
<path d="M15.7653 19.394H15.7761" stroke="black" stroke-width="2" stroke-linecap="round" stroke-linejoin="round"/>
<path d="M1.94317 25.4977C0.922906 21.6425 1.1343 17.5591 2.54689 13.8332C3.95946 10.1073 6.50028 6.93107 9.80406 4.75875C13.1077 2.5865 17.0051 1.52936 20.9377 1.73803C24.8702 1.94671 28.6374 3.41056 31.699 5.92083" stroke="black"/>
<path d="M2.66438 27.7434L0.465053 25.5166L3.46938 24.7015L2.66438 27.7434Z" fill="black"/>
<path d="M38.2083 15.4644C39.0279 19.3685 38.6057 23.435 37.0025 27.0809C35.3994 30.7266 32.698 33.7637 29.2866 35.7579C25.8753 37.752 21.9288 38.6012 18.0124 38.1844C14.0959 37.7676 10.4095 36.1061 7.48162 33.4369" stroke="black"/>
<path d="M37.4967 12.9552L39.5779 15.2955L36.5356 15.9503L37.4967 12.9552Z" fill="black"/>
</svg>
