<svg width="96" height="96" viewBox="0 0 96 96" fill="none" xmlns="http://www.w3.org/2000/svg">
<path d="M12.04 44.88V62.84C12.04 80.8 19.24 88 37.2 88H58.76C76.72 88 83.92 80.8 83.92 62.84V44.88" stroke="#292D32" stroke-width="1.5" stroke-linecap="round" stroke-linejoin="round"/>
<path d="M48 48C55.32 48 60.72 42.04 60 34.72L57.36 8H38.68L36 34.72C35.28 42.04 40.68 48 48 48Z" stroke="#292D32" stroke-width="1.5" stroke-linecap="round" stroke-linejoin="round"/>
<path d="M73.2399 48C81.3199 48 87.24 41.44 86.44 33.4L85.3199 22.4C83.8799 12 79.88 8 69.4 8H57.2L60 36.04C60.68 42.64 66.6399 48 73.2399 48Z" stroke="#292D32" stroke-width="1.5" stroke-linecap="round" stroke-linejoin="round"/>
<path d="M22.56 48C29.16 48 35.12 42.64 35.76 36.04L36.64 27.2L38.56 8H26.36C15.88 8 11.88 12 10.44 22.4L9.36002 33.4C8.56002 41.44 14.48 48 22.56 48Z" stroke="#292D32" stroke-width="1.5" stroke-linecap="round" stroke-linejoin="round"/>
<path d="M48 68C41.32 68 38 71.32 38 78V88H58V78C58 71.32 54.68 68 48 68Z" stroke="#292D32" stroke-width="1.5" stroke-linecap="round" stroke-linejoin="round"/>
</svg>
