<svg width="96" height="96" viewBox="0 0 96 96" fill="none" xmlns="http://www.w3.org/2000/svg">
<path d="M48 48C59.0457 48 68 39.0457 68 28C68 16.9543 59.0457 8 48 8C36.9543 8 28 16.9543 28 28C28 39.0457 36.9543 48 48 48Z" stroke="#292D32" stroke-width="1.5" stroke-linecap="round" stroke-linejoin="round"/>
<path d="M13.6401 88C13.6401 72.52 29.0401 60 48.0001 60C51.8401 60 55.5602 60.52 59.0402 61.48" stroke="#292D32" stroke-width="1.5" stroke-linecap="round" stroke-linejoin="round"/>
<path d="M88 72C88 75 87.1601 77.84 85.6801 80.24C84.8401 81.68 83.76 82.96 82.52 84C79.72 86.52 76.04 88 72 88C66.16 88 61.0799 84.88 58.3199 80.24C56.8399 77.84 56 75 56 72C56 66.96 58.32 62.44 62 59.52C64.76 57.32 68.24 56 72 56C80.84 56 88 63.16 88 72Z" stroke="#292D32" stroke-width="1.5" stroke-miterlimit="10" stroke-linecap="round" stroke-linejoin="round"/>
<path d="M65.76 72L69.72 75.96L78.24 68.0801" stroke="#292D32" stroke-width="1.5" stroke-linecap="round" stroke-linejoin="round"/>
</svg>
