<svg width="48" height="16" viewBox="0 0 48 16" fill="none" xmlns="http://www.w3.org/2000/svg">
<path d="M20.7995 15.7692H16.9111L19.3432 0.280762H23.2313L20.7995 15.7692Z" fill="#00579F"/>
<path d="M34.8951 0.659404C34.1282 0.346018 32.9117 0 31.4076 0C27.5678 0 24.8638 2.10895 24.8472 5.12412C24.8153 7.3487 26.7832 8.58429 28.255 9.32604C29.7593 10.084 30.2707 10.5787 30.2707 11.2543C30.2554 12.2919 29.0551 12.7702 27.9356 12.7702C26.3832 12.7702 25.5514 12.5236 24.2873 11.9464L23.7753 11.6989L23.2312 15.1757C24.1432 15.6036 25.8234 15.9834 27.5678 16C31.6477 16 34.3038 13.9237 34.3353 10.7105C34.3508 8.94739 33.3117 7.59639 31.0714 6.49242C29.7115 5.78374 28.8786 5.30589 28.8786 4.58079C28.8946 3.9216 29.583 3.24643 31.1182 3.24643C32.3823 3.21336 33.3111 3.52631 34.0146 3.83948L34.3663 4.00394L34.8951 0.659404Z" fill="#00579F"/>
<path d="M40.0639 10.2822C40.3841 9.3924 41.6163 5.94865 41.6163 5.94865C41.6001 5.98172 41.9358 5.04244 42.1278 4.46582L42.3996 5.80039C42.3996 5.80039 43.1359 9.50781 43.2958 10.2822C42.6881 10.2822 40.8319 10.2822 40.0639 10.2822ZM44.8635 0.280762H41.8559C40.9284 0.280762 40.2238 0.560641 39.8236 1.56584L34.048 15.769H38.1279C38.1279 15.769 38.7996 13.8573 38.944 13.4456C39.3915 13.4456 43.3605 13.4456 43.9362 13.4456C44.0479 13.9894 44.4002 15.769 44.4002 15.769H48.0004L44.8635 0.280762Z" fill="#00579F"/>
<path d="M13.6634 0.280762L9.85548 10.8424L9.43936 8.70036C8.73535 6.22875 6.52742 3.5434 4.06348 2.20816L7.55143 15.7528H11.6632L17.775 0.280762H13.6634Z" fill="#00579F"/>
<path d="M6.31995 0.280762H0.0640009L0 0.59371C4.88003 1.87901 8.11199 4.97718 9.43985 8.70102L8.07988 1.58271C7.85598 0.593491 7.16792 0.313392 6.31995 0.280762Z" fill="#F4A622"/>
</svg>
